<?xml version="1.0" encoding="utf-8"?>
<!-- Generator: Adobe Illustrator 18.0.0, SVG Export Plug-In . SVG Version: 6.00 Build 0)  -->
<!DOCTYPE svg PUBLIC "-//W3C//DTD SVG 1.1//EN" "http://www.w3.org/Graphics/SVG/1.1/DTD/svg11.dtd">
<svg version="1.1" id="Layer_1" xmlns="http://www.w3.org/2000/svg" xmlns:xlink="http://www.w3.org/1999/xlink" x="0px" y="0px"
	 viewBox="0 0 1400 980" enable-background="new 0 0 1400 980" xml:space="preserve">
<g>
	<polygon points="0,0 0,107.4 0,872.6 0,980 1400,980 1400,872.6 1400,107.4 1400,0 	"/>
	<g>
		<g>
			<path fill="#FFFFFF" d="M134.1,689.9c6,18.1,20,34,38.2,40.2c24.1,8.1,43.2-20.6,66.2-11.1c0.9,0.4,1.8,0.3,2.4,0
				c1.5-0.4,2.8-1.7,2.3-3.7c-5.2-20.7-18-38.1-38.7-44.9c-9.1-3-20.8-2.7-29.5,1.4c-12.9,6.2-25.8,23.2-41.7,17.1
				c-0.2-0.1-0.3,0.2-0.2,0.3C133.4,689.4,133.7,689.7,134.1,689.9z M174.9,678.5c26.2-14.7,51.7,8.9,60.5,32.4
				c-15.3-3.2-28.7,7.1-42.8,12.5c-26.3,10-42.5-15.4-57-32.3C149.4,699.5,162.8,685.3,174.9,678.5z"/>
			<path fill="#FFFFFF" d="M345.8,671.7c-8.7-4.2-20.4-4.4-29.5-1.4c-20.8,6.8-33.5,24.2-38.7,44.9c-0.5,2,0.8,3.3,2.3,3.7
				c0.7,0.3,1.5,0.4,2.4,0c23-9.5,42.1,19.3,66.2,11.1c18.2-6.2,32.2-22.1,38.2-40.2c0.3-0.3,0.7-0.5,1-0.8c0.1-0.1,0-0.4-0.2-0.3
				C371.6,694.9,358.7,677.9,345.8,671.7z M328.1,723.4c-14.1-5.3-27.5-15.7-42.8-12.5c8.8-23.5,34.3-47.1,60.5-32.4
				c12.1,6.8,25.5,21.1,39.3,12.6C370.7,707.9,354.5,733.3,328.1,723.4z"/>
			<path fill="#FFFFFF" d="M431.7,620.6c0.3-0.1,0.5-0.3,0.8-0.4c0.8-0.4,0.3-1.7-0.6-1.5c-37.1,10.7-61.5-21.3-92.5-34.4
				c-24.5-10.4-51.2-8.5-72.8,7.6c-0.6,0.4-1,1-1.3,1.5c-0.9-0.7-1.8-1.2-2.9-1.7c-0.7-0.3-1.3-0.3-1.9-0.2
				c-0.6-0.1-1.3-0.1-1.9,0.2c-1.1,0.5-2,1-2.9,1.7c-0.3-0.6-0.7-1.1-1.3-1.5c-21.7-16.1-48.3-18-72.8-7.6
				c-30.9,13.1-55.4,45.1-92.5,34.4c-0.9-0.2-1.4,1-0.6,1.5c0.3,0.1,0.5,0.3,0.8,0.4c-5,20.9-3.2,45.2-0.3,66.2
				c2.9,21.2,10.7,41.5,21.2,60c7.5,13.2,19.1,31.8,34.2,36.9c5.7,2,11.7-0.8,14.3-5.2c5.6,8.1,15.1,13.4,25.7,16.1
				c11.1,2.8,22.7,1.5,33.9,0c13.2-1.8,34.5-8.2,41.8,6.8v2.3c0.2-0.4,0.3-0.8,0.5-1.2c0.2,0.4,0.3,0.8,0.5,1.2v-2.3
				c7.3-15,28.6-8.7,41.8-6.8c11.1,1.5,22.8,2.8,33.9,0c10.6-2.7,20.2-8,25.7-16.1c2.6,4.3,8.5,7.1,14.3,5.2
				c15.1-5.1,26.7-23.7,34.2-36.9c10.6-18.5,18.3-38.8,21.2-60C434.9,665.8,436.7,641.5,431.7,620.6z M257.4,611
				c-0.6-0.7-1.3-1.2-2-1.6c-0.8-4.6,1-9.2,5-11.7c4,2.4,5.9,7.1,5,11.7c-0.7,0.4-1.4,0.9-2,1.6c-2.7,2.8,1.5,7,4.3,4.3
				c1.7-1.7,4.8-0.6,5.5,1.7c0.7,2.4,0.4,4.9-1.1,7c-1.5,2.1-5.8,4-7.4,0.8c-1.6-3.1,1.3-5.8,4.4-4.2c0.9,0.4,1.6-0.6,1-1.3
				c-2.7-3.4-7.5-2.2-9.6,1c-2.1-3.1-7-4.4-9.6-1c-0.6,0.7,0.1,1.7,1,1.3c3-1.6,6,1.2,4.4,4.2c-1.7,3.2-5.9,1.4-7.4-0.8
				c-1.5-2.1-1.8-4.6-1.1-7c0.7-2.3,3.8-3.4,5.5-1.7C255.9,618,260.1,613.8,257.4,611z M269.3,661.4c3.8,2.4-6.3,7-7.2,7.6
				c-0.6,0.4-1.2,0.8-1.7,1.3c-0.5-0.5-1.1-1-1.7-1.3c-0.9-0.5-11-5.2-7.2-7.6c2.4-1.5,0.9-5.2-1.9-4.5c-4.4-4.2-3.6-7.5,2.4-9.8
				c2.3,1.8,5.3,2.8,8.5,2.6c3.2,0.2,6.2-0.8,8.5-2.6c6,2.3,6.7,5.6,2.4,9.8C268.4,656.2,266.9,659.9,269.3,661.4z M260.4,757.8
				c-3.7-2.5-6.8-5.6-8.6-10.1c-2.1-5.3-0.1-12.9,1.1-19.3c2.6,3.3,5.1,6.5,7,9.5v1.5c0.1-0.1,0.2-0.3,0.3-0.5
				c0-0.1,0.1-0.2,0.2-0.2c0,0.1,0.1,0.2,0.2,0.2c0.1,0.2,0.2,0.3,0.3,0.5v-1.5c2-3.1,4.5-6.3,7-9.5c1.2,6.5,3.2,14.1,1.1,19.3
				C267.2,752.2,264,755.2,260.4,757.8z M260.4,728.3c-5.1-7-11.5-13.2-14.4-21.5c-3.9-11.1,6.8-21.7,11.7-31.6c1,1.1,1.8,2.4,2.3,4
				v3.7c0.2-0.3,0.4-0.7,0.5-1.2c0,0.5,0.2,0.9,0.5,1.2v-3.7c0.5-1.6,1.3-2.9,2.3-4c4.9,9.9,15.6,20.5,11.7,31.6
				C271.9,715.1,265.5,721.3,260.4,728.3z M260,628.1c0.1-0.2,0.2-0.5,0.3-0.7c0.1,0.2,0.2,0.5,0.3,0.7c-0.1,0.1-0.2,0.1-0.3,0.2
				C260.3,628.3,260.2,628.2,260,628.1z M260.4,631c2.9,1.2,6.4,2.5,6.9,5.9c0.6,4.1-2.6,7.1-6.4,6.6v-0.1c-0.1,0-0.1,0-0.2,0
				c-0.1,0-0.2,0-0.3,0c-0.1,0-0.2,0-0.3,0c-0.1,0-0.1,0-0.2,0v0.1c-3.9,0.5-7.1-2.5-6.4-6.6C254,633.5,257.5,632.3,260.4,631z
				 M228,784.9c-26.5,3.9-64.1,8.3-73.3-25.4c-0.2-0.7-1.1-0.5-1.1,0.2c-0.3,4.8,0.3,9,1.7,12.9c-1.2,9.3-15.9,1-19.9-3.2
				c-5.8-6-10.7-12.8-15.3-19.8c-8-12.2-14-25.5-18.5-39.3c-4.9-15-7.2-30.6-8.5-46.2c-1.2-14,0-28.6-2.4-42.5
				c23.3,11.1,48-2.4,67.8-15.1c14.5-9.2,28.9-18.5,46.3-20.5c16.2-1.9,32.3,3.8,45.3,13.3c0.3,0.2,0.6,0.4,0.9,0.5
				c-1,2.8-1,5.9,0.3,8.7c-3.6-0.1-7.2,2-9,5.4c-3.3,6.1-0.3,14.2,5.6,17.4c0.7,0.4,1.4,0.6,2.1,0.8c-1,1.3-1.6,2.8-1.9,4.3
				c-29.8-18.2-63.2-17.6-93.3,0.6c-0.6,0.4-0.1,1.2,0.5,0.9c29-16,65.7-13.6,93,4.8c0.2,0.1,0.4,0.2,0.5,0.3
				c0.2,0.4,0.4,0.8,0.6,1.2c-2.8,0.4-4.9,2.4-6.1,5c-15.7-11.7-30.8-17.9-51.2-16.7c-9.5,0.6-18.5,3.4-27.1,7.4
				c-4.7,2.2-9,5.3-13.3,8.2c-2.2,1.6-4.6,3-7,4.3c-1.7,0.7-3.5,1.3-5.2,2c-6.1,2.5-8.2,0.1-6.4-7c6.9,6.3,11.1-5.6,4.6-11.1
				c-9.4-8.1-24.4,6.5-17.9,16.6c11.1,17.4,29.9,6.1,43.1-1.9c23.5-14.2,57.3-12.1,79.2,4.3c0.2,2.7,1.3,5.1,3.5,6.2
				c-0.4,1.3-0.4,2.7,0.4,4.1c2.3,4.1,6.4,5.7,9.7,8.1c-4.2,4.3-8.1,9.5-10.8,15.2c-4.9-10.7-9.8-19.8-19.6-27.2
				c-10-7.6-21.3-11.6-33.9-11c-12.2,0.6-22.2,8.6-31.7,15.3c-14.3,10.1-30.8,13.1-46.4,3.7c-0.3-0.2-0.5,0.2-0.3,0.4
				c15.7,17.7,36.1,13.6,53.8,1.4c12.9-8.9,24.1-14.8,40.1-10.1c14.1,4.2,26,18.8,33.1,31.4c0.5,1.7,0.9,3.5,1.7,5.1
				c-0.4,2.1-0.7,4.2-0.7,6.2c0,7.9,4.8,15.1,9.9,21.9c-0.3,0.8-0.6,1.6-0.9,2.5c-13.5-11.8-29.8-6.1-44.7,0.4
				c-24.3,10.7-51.6,6.7-67.4-16.2c-4.6-6.6-7.3-12-15.4-14.5c-5-1.6-9.4,1.8-11.4,6c-4.3,8.9,7.5,15.4,13.8,8.8
				c0.2-0.2,0-0.6-0.3-0.5c3.4-3.8,5.6-3.7,6.8,0.3c1.7,2.8,3.4,5.4,5.4,8c2.7,3.6,6.1,6.5,9.5,9.4c7.7,6.6,17.5,10.4,27.4,12
				c9.5,1.5,18.8-0.1,27.7-3.4c13.7-5,30.7-16.4,44.7-5.3c0.6,0.5,1.3,0.7,1.9,0.7c-0.9,3.1-1.5,6.2-1.6,9.4
				c-4.6-5.3-11.2-8-19.9-7.7c-7.5,0.3-15.1,4.6-21.8,7.7c-12.5,6-23,8.1-36.6,4.6c-0.6-0.1-0.8,0.6-0.4,0.9
				c9.5,7.1,21.8,6.2,32.5,2.6c7-2.3,13.2-6.5,20-9.1c9.5-3.5,20.2-0.3,26.9,7c0.2,0.6,0.3,1.2,0.5,1.7c0.6,1.5,1.4,2.9,2.3,4.2
				c-0.9,6.1-5.1,12-6.3,18c-25.5-8.8-54.1,11.8-77.3-6.1c-0.6-0.4-1.6,0.1-1.1,0.9c18,25.3,54.2,4.1,78.5,11.5
				c0.5,1.9,1.1,3.6,1.9,5.1C239.9,783.7,233.5,784,228,784.9z M267.4,785c-1.5,1.4-3.1,2.7-4.6,4.1c-0.9,0.6-1.7,1.3-2.4,2
				c-0.8-0.7-1.6-1.4-2.4-2c-1.5-1.4-3-2.8-4.6-4.1c-5-4.4-4.2-10.7-2.1-16.2c1.2-3.4,2.2-6.5,2.3-9.6c1.9,1.8,4.1,3.3,6.3,4.6v0.6
				c0.2-0.1,0.3-0.2,0.5-0.3c0.2,0.1,0.3,0.2,0.5,0.3v-0.6c2.2-1.4,4.4-2.9,6.3-4.6c0.1,3.1,1.1,6.2,2.3,9.6
				C271.5,774.4,272.4,780.7,267.4,785z M427.7,663.9c-1.4,15.7-3.6,31.2-8.5,46.2c-4.6,13.8-10.5,27.1-18.5,39.3
				c-4.6,7-9.5,13.8-15.3,19.8c-4,4.2-18.7,12.5-19.9,3.2c1.4-3.8,2.1-8.1,1.7-12.9c0-0.6-1-0.8-1.1-0.2
				c-9.2,33.7-46.7,29.3-73.3,25.4c-5.5-0.8-11.9-1.1-17.9-0.2c0.8-1.5,1.5-3.2,1.9-5.1c24.3-7.3,60.6,13.8,78.5-11.5
				c0.5-0.7-0.5-1.3-1.1-0.9c-23.1,17.9-51.7-2.8-77.3,6.1c-1.2-6.1-5.4-11.9-6.3-18c0.9-1.3,1.8-2.7,2.3-4.2
				c0.2-0.6,0.4-1.1,0.5-1.7c6.6-7.2,17.4-10.5,26.9-7c6.9,2.5,13.1,6.7,20,9.1c10.8,3.6,23,4.5,32.5-2.6c0.4-0.3,0.2-1.1-0.4-0.9
				c-13.7,3.5-24.1,1.4-36.6-4.6c-6.6-3.2-14.3-7.4-21.8-7.7c-8.7-0.3-15.3,2.4-19.9,7.7c0-3.1-0.7-6.3-1.6-9.4
				c0.6,0,1.3-0.2,1.9-0.7c14-11.1,31.1,0.3,44.7,5.3c8.9,3.3,18.2,5,27.7,3.4c9.9-1.6,19.7-5.4,27.4-12c3.4-2.9,6.8-5.9,9.5-9.4
				c2-2.6,3.7-5.2,5.4-8c1.1-4,3.4-4.1,6.8-0.3c-0.3-0.1-0.5,0.3-0.3,0.5c6.2,6.6,18,0.1,13.8-8.8c-2-4.1-6.4-7.5-11.4-6
				c-8.1,2.5-10.8,7.9-15.4,14.5c-15.8,22.9-43.1,26.9-67.4,16.2c-14.9-6.6-31.2-12.3-44.7-0.4c-0.3-0.8-0.6-1.7-0.9-2.5
				c5.2-6.7,9.9-13.9,9.9-21.9c0-2.1-0.3-4.2-0.7-6.2c0.7-1.6,1.2-3.3,1.7-5.1c7.1-12.6,19-27.2,33.1-31.4
				c16-4.7,27.2,1.2,40.1,10.1c17.7,12.2,38.1,16.3,53.8-1.4c0.2-0.2-0.1-0.6-0.3-0.4c-15.6,9.4-32.1,6.4-46.4-3.7
				c-9.5-6.7-19.5-14.7-31.7-15.3c-12.6-0.6-23.9,3.4-33.9,11c-9.9,7.5-14.8,16.6-19.6,27.2c-2.7-5.7-6.7-10.9-10.8-15.2
				c3.3-2.4,7.4-3.9,9.7-8.1c0.7-1.3,0.8-2.8,0.4-4.1c2.2-1.1,3.4-3.5,3.5-6.2c21.9-16.5,55.7-18.6,79.2-4.3
				c13.2,8,32,19.4,43.1,1.9c6.4-10.1-8.5-24.7-17.9-16.6c-6.5,5.5-2.3,17.4,4.6,11.1c1.8,7.1-0.3,9.4-6.4,7c-1.7-0.7-3.5-1.3-5.2-2
				c-2.4-1.3-4.8-2.7-7-4.3c-4.3-2.9-8.5-6-13.3-8.2c-8.5-3.9-17.6-6.8-27.1-7.4c-20.4-1.2-35.5,4.9-51.2,16.7
				c-1.2-2.6-3.3-4.6-6.1-5c0.2-0.4,0.4-0.8,0.6-1.2c0.2-0.1,0.4-0.2,0.5-0.3c27.3-18.4,64-20.8,93-4.8c0.6,0.3,1.1-0.6,0.5-0.9
				c-30.1-18.2-63.5-18.8-93.3-0.6c-0.3-1.5-1-3-1.9-4.3c0.7-0.2,1.4-0.5,2.1-0.8c5.9-3.2,8.9-11.3,5.6-17.4c-1.9-3.4-5.5-5.5-9-5.4
				c1.2-2.8,1.3-5.9,0.3-8.7c0.3-0.1,0.6-0.3,0.9-0.5c12.9-9.5,29-15.2,45.3-13.3c17.4,2.1,31.8,11.3,46.3,20.5
				c19.9,12.7,44.5,26.1,67.8,15.1C427.7,635.3,428.9,649.9,427.7,663.9z"/>
		</g>
		<g>
			<path fill="#FFFFFF" d="M168.7,259.1c3.7-16.6,21.6-16.1,33.8-10.3c8,3.8,14.3,11.4,20.6,17.4c11.6,11.1,24.3,20.2,37.3,29.5
				c13-9.3,25.6-18.4,37.3-29.5c6.3-6,12.6-13.6,20.6-17.4c12.3-5.9,30.1-6.3,33.8,10.3c0.1,0.6,1.2,0.5,1.1-0.2
				c-2.1-18.7-23.2-23.6-38-15.3c-20.5,11.4-35.9,30.2-54.8,44.1c-18.9-13.9-34.4-32.7-54.8-44.1c-14.8-8.3-35.8-3.4-38,15.3
				C167.5,259.6,168.6,259.8,168.7,259.1z"/>
			<path fill="#FFFFFF" d="M233.2,324.8c-0.1-0.4-0.4-0.8-0.7-1.1c-8.3-12.4-21.6-21.8-35.1-27.7c-3.8-1.6-7.7-2.5-11.8-3.1
				c-6-1.6-12.2-2.4-18.8-2.8c-16-1-35.4,0.2-49.9-7.2c-0.3-0.5-0.5-1-0.8-1.5c-0.2-0.3-0.7-0.1-0.6,0.3c0.5,1.6,1,3.2,1.6,4.8
				c-0.1,0.3,0,0.7,0.3,0.9c0,0,0,0,0,0c7,19,20.4,36.2,39,44.8c23.7,11,46.8-4.1,70.7-4.3c1.9,0.1,3.7,0.3,5.6,0.6
				c1.1,0.4,2.3-0.6,1.6-1.8C234,326.1,233.6,325.4,233.2,324.8z M118.6,286.1c-0.1-0.1-0.2-0.3-0.2-0.4c0.2,0.2,0.3,0.3,0.5,0.4
				C118.8,286.1,118.7,286.1,118.6,286.1z M220.3,323.7c-10.9-0.8-21.9,1-32.9,0.9c-21.5-0.2-30-15.8-43.6-28.5
				c-0.1-0.2-0.1-0.3-0.2-0.5c14.6,5.3,30.7-0.1,45.8,3.5c14.4,3.5,25.8,14.3,36.9,24C224.3,323.3,222.3,323.5,220.3,323.7z"/>
			<path fill="#FFFFFF" d="M257.2,259.9c1-1.1,2.1-2.2,3.1-3.3c1,1.1,2.1,2.2,3.1,3.3c1.1,1.1,3.1,0.9,3.9-0.5
				c1.8-3.2,3.6-6.1,6-8.9c0.6-0.7,0.9-1.7,0.3-2.6c-2.8-4.3-6.8-7.2-9-12c-1.9-3.9-2.7-8.2-4.3-12.1c-1.7,3.9-2.5,8.2-4.3,12.1
				c-2.3,4.8-6.3,7.7-9,12c-0.6,0.9-0.3,1.9,0.3,2.6c2.4,2.8,4.2,5.7,6,8.9C254.1,260.8,256.2,261.1,257.2,259.9z M260.4,236.5
				c2,5,5,9.8,8.4,12.8c-1.4,1.6-2.7,3.3-3.9,5c-1.5-1.5-3-3-4.5-4.5c-1.5,1.5-3,3-4.5,4.5c-1.2-1.8-2.5-3.4-3.9-5
				C255.4,246.3,258.4,241.6,260.4,236.5z"/>
			<path fill="#FFFFFF" d="M245.5,225.3c-2.4,0-4.4,2-4.4,4.4c0,2.4,2,4.4,4.4,4.4c2.4,0,4.4-2,4.4-4.4
				C249.9,227.3,247.9,225.3,245.5,225.3z"/>
			<path fill="#FFFFFF" d="M427.4,272.8c-6.1-18.7-20.9-40.6-42.6-42.3c-8-0.6-20.4,3-26.3,9.7c-5-11.6-23.6-17.4-35.5-14.4
				c-9.1,2.3-17.8,6.8-26,12.4c-1.9-4.3-5.9-7.3-10.6-8.3c0.4-3.3-0.6-6.9-3.2-9.1c-1.7-1.5-3.8-2.6-6-3.2c0.6-0.6,1.1-1.2,1.7-1.9
				c0.9-1,1-2.6,0-3.6c-8.2-8.2-14-16.9-18.5-27.1c-4.5,10.2-10.3,18.9-18.5,27.1c-1,1-0.9,2.6,0,3.6c0.6,0.6,1.1,1.2,1.7,1.9
				c-2.2,0.5-4.3,1.7-6,3.2c-2.6,2.2-3.6,5.8-3.2,9.1c-4.8,1-8.7,4-10.6,8.3c-8.2-5.6-16.9-10.1-26-12.4
				c-11.9-3.1-30.5,2.8-35.5,14.4c-5.9-6.8-18.3-10.4-26.3-9.7c-21.7,1.7-36.5,23.6-42.6,42.3c-10.9,33.6,14.7,111.9,61.3,93.9
				c1.2,7.3,5.8,14.1,13.9,18.6c25.5,14.1,47.7-23.7,73.4-13.4c2.6,4.2,6.9,8,9.8,11.8c3.8,5.1,6.5,10.8,8.7,16.8
				c2.2-5.9,4.9-11.7,8.7-16.8c2.9-3.8,7.1-7.6,9.8-11.8c25.6-10.3,47.9,27.5,73.4,13.4c8.1-4.5,12.7-11.3,13.9-18.6
				C412.7,384.7,438.3,306.5,427.4,272.8z M236.5,235.3c2.2,3.1,5.7,5.2,9.6,4.7c4.4-0.6,8-4.5,5.8-8.9c-0.2-0.4-0.9-0.3-1,0.1
				c-1.6,7.8-11.2,5.4-11.8-1.6c-0.2-2.4,1.2-4.3,3.1-5.6c2.1-1.3,4.6-0.8,6.9-0.5c1.9,0.2,2.8-1.5,2.6-3c0.3-0.8,0.2-1.8-0.6-2.6
				c-1.3-1.3-2.6-2.6-3.9-3.9c5.4-5.4,9.9-11.7,13.1-18.7c3.2,6.9,7.7,13.3,13.1,18.7c-1.3,1.3-2.6,2.6-3.9,3.9
				c-0.8,0.8-0.9,1.8-0.6,2.6c-0.2,1.6,0.7,3.2,2.6,3c2.3-0.3,4.8-0.8,6.9,0.5c1.9,1.2,3.3,3.2,3.1,5.6c-0.5,6.9-10.1,9.3-11.8,1.6
				c-0.1-0.5-0.8-0.6-1-0.1c-2.2,4.4,1.4,8.3,5.8,8.9c3.9,0.5,7.5-1.6,9.6-4.7c3.7,0.6,7.3,2.2,10.4,4.5
				c-12.8,9.1-24.3,21-34.3,32.1c-10-11.1-21.5-22.9-34.3-32.1C229.2,237.6,232.8,235.9,236.5,235.3z M366.5,359.9
				c-0.1,0-0.2-0.1-0.3-0.1c-0.2-1.2-0.4-2.4-0.8-3.5c39.5-8.6,62-53.6,45.1-90.8c-0.1-0.1-0.3-0.1-0.2,0.1
				c2.2,19.2,3.4,39.6-6.8,56.9c-8.8,14.8-22.6,26.2-39.8,29.5c-2-3.7-4.9-7-9-9.8c-0.5-0.3-1.1,0.4-0.6,0.8
				c11.1,10.2,10.1,33.6-7.6,36.7c-13.1,2.3-23.6-5.2-34.8-10.4c-9.4-4.4-20.2-7.7-29.9-4.6c0.2-1.6,0.2-3.2,0-4.7
				c0.3,0,0.6,0,0.9-0.1c15.5-3.3,28.8,0.3,42,8.6c5,3.1,12.7,7.4,18.6,3.6c13.2-8.6,8.1-25.3-1.8-34.6c-0.2-0.2-0.5,0.1-0.4,0.3
				c1.7,3.7,4.5,7.7,5.4,11.7c1.8,7.6-1.8,23.5-15.1,14.6c-5.2-3.5-10.4-7.2-16.4-9.2c-11.3-4-22.5-4.6-34.2-2
				c-0.3,0.1-0.6,0.2-0.9,0.3c-0.3-0.7-0.5-1.4-0.8-2.1c0.3-0.1,0.6-0.2,0.9-0.4c15.9-10.2,37.2-10.6,53.5-0.8
				c0.6,0.4,1.1-0.5,0.5-0.9c-17.9-13.5-37.4-14.4-56.6-2.7c0,0,0,0,0,0c-0.6-1.9-1.1-4-1.4-6.2c0-0.3-0.6-0.5-0.6-0.1
				c-0.9,5.2,0.6,8.8,1.3,14c1.5,10.9-4.6,15.4-10.5,22.7c-2,2.6-3.9,5.2-5.6,7.9c-1.7-2.7-3.6-5.3-5.6-7.9
				c-5.9-7.4-12-11.8-10.5-22.7c0.7-5.1,2.2-8.8,1.3-14c-0.1-0.4-0.6-0.2-0.6,0.1c-0.3,2.2-0.8,4.2-1.4,6.2c0,0,0,0,0,0
				c-19.2-11.7-38.8-10.8-56.6,2.7c-0.5,0.4-0.1,1.3,0.5,0.9c16.3-9.8,37.6-9.5,53.5,0.8c0.3,0.2,0.6,0.3,0.9,0.4
				c-0.3,0.7-0.5,1.4-0.8,2.1c-0.3-0.1-0.5-0.2-0.9-0.3c-11.7-2.6-22.9-2-34.2,2c-6,2.1-11.1,5.8-16.4,9.2
				c-13.3,8.9-16.9-7-15.1-14.6c0.9-4,3.7-7.9,5.4-11.7c0.1-0.3-0.2-0.5-0.4-0.3c-9.9,9.3-15,26-1.8,34.6c5.9,3.9,13.6-0.4,18.6-3.6
				c13.2-8.4,26.5-12,42-8.6c0.3,0.1,0.6,0.1,0.9,0.1c-0.2,1.5-0.3,3.1,0,4.7c-9.6-3.1-20.4,0.2-29.9,4.6
				c-11.2,5.3-21.7,12.7-34.8,10.4c-17.6-3.1-18.7-26.5-7.6-36.7c0.4-0.4-0.1-1.2-0.6-0.8c-4,2.8-7,6.2-9,9.8
				c-17.2-3.3-31-14.6-39.8-29.5c-10.3-17.4-9-37.8-6.8-56.9c0-0.1-0.2-0.2-0.2-0.1c-17,37.2,5.6,82.2,45.1,90.8
				c-0.4,1.2-0.6,2.3-0.8,3.5c-0.1,0-0.2,0-0.3,0.1c-37.3,13.4-57.1-40-57.2-68.1c0-16.3,6.9-32.1,18-43.8
				c5.1-5.4,11.4-9.1,18.4-11.3c9-2.9,23.6,1,27.6,10.2c0,1.7,0.4,3.5,1,5.4c0,1.1-0.2,2.2-0.5,3.4c-0.3,1.1,1.2,1.7,1.7,0.7
				c1.8-3,2.5-5.7,2.4-8.3c7.4-22,32.3-18,50-6.4c16.6,10.9,31.3,25.3,44.7,39.9c13.4-14.6,28.1-29,44.7-39.9
				c17.7-11.6,42.6-15.7,50,6.4c-0.1,2.5,0.6,5.3,2.4,8.3c0.6,0.9,2,0.3,1.7-0.7c-0.3-1.2-0.5-2.3-0.5-3.4c0.6-1.9,1-3.7,1-5.4
				c4-9.2,18.6-13.1,27.6-10.2c7,2.2,13.3,5.9,18.4,11.3c11.1,11.7,18,27.5,18,43.8C423.6,319.9,403.8,373.3,366.5,359.9z"/>
			<path fill="#FFFFFF" d="M371.7,281.7c7.6,0.9,17.9,2.6,24.3-3.2c12.7-11.4,1.9-31.3-13.6-32.1c-12.8-0.7-17.3,16.3-6.8,22.4
				c0.6,0.4,1.4-0.6,0.8-1c0-15.8,5-19.7,15-11.9c5.2,4.8,6.1,10.4,2.5,16.8c-5.5,4.4-11.5,3.7-17.9,2.6c-6.6-1.2-13.3-2.2-20-2.2
				c-16.1-0.2-31.7,3.2-46.5,9.2c-13.1,5.3-27.4,13.6-36.2,25c-5.7,7.4-8,13.8-8.7,21.1c-1.5-5.3-2.7-10.8-4.4-16
				c-1.7,5.2-2.9,10.7-4.4,16c-0.7-7.3-3-13.7-8.7-21.1c-8.8-11.3-23.1-19.7-36.2-25c-14.9-6-30.5-9.3-46.5-9.2
				c-6.7,0.1-13.4,1.1-20,2.2c-6.4,1.1-12.4,1.7-17.9-2.6c-3.5-6.4-2.7-12,2.5-16.8c10-7.8,15-3.8,15,11.9c-0.6,0.5,0.2,1.4,0.8,1
				c10.5-6.1,6-23.1-6.8-22.4c-15.5,0.8-26.3,20.8-13.6,32.1c6.4,5.7,16.7,4.1,24.3,3.2c13.8-1.7,27.9-0.5,41.4,2.5
				c27.1,6,59.6,25.1,61.3,55.7c-1.7,3.9-3.3,7.8-3.2,11.9c0.2,11.1,6.7,19,11.9,28.1c5.2-9.1,11.7-17.1,11.9-28.1
				c0.1-4.1-1.5-8.1-3.2-11.9c1.6-30.6,34.2-49.8,61.3-55.7C343.8,281.2,358,280,371.7,281.7z M260.4,365.5
				c-3.6-5.7-6.7-11.5-4.5-19.8c1.2-4.8,3-9.3,4.5-13.7c1.5,4.5,3.2,9,4.5,13.7C267,354,264,359.8,260.4,365.5z"/>
			<path fill="#FFFFFF" d="M404.6,281.5c-0.3,0.5-0.5,1-0.8,1.5c-14.5,7.4-33.9,6.3-49.9,7.2c-6.6,0.4-12.7,1.3-18.8,2.8
				c-4,0.5-8,1.4-11.8,3.1c-13.5,5.8-26.9,15.2-35.1,27.7c-0.3,0.3-0.6,0.7-0.7,1.1c-0.4,0.6-0.8,1.2-1.1,1.9
				c-0.7,1.2,0.6,2.2,1.6,1.8c1.9-0.3,3.7-0.5,5.6-0.6c23.9,0.2,47.1,15.3,70.7,4.3c18.5-8.6,32-25.8,39-44.8c0,0,0,0,0,0
				c0.3-0.2,0.4-0.6,0.3-0.9c0.6-1.6,1.1-3.2,1.6-4.8C405.4,281.4,404.8,281.1,404.6,281.5z M376.9,296.1
				c-13.6,12.7-22.1,28.3-43.6,28.5c-11,0.1-22-1.7-32.9-0.9c-2-0.2-4-0.4-6-0.5c11.1-9.7,22.5-20.5,36.9-24
				c15.1-3.7,31.2,1.8,45.8-3.5C377,295.8,377,295.9,376.9,296.1z M402.2,286.1c-0.1,0-0.2,0-0.3,0c0.2-0.1,0.3-0.3,0.5-0.4
				C402.3,285.8,402.3,286,402.2,286.1z"/>
			<path fill="#FFFFFF" d="M275.3,234.2c2.4,0,4.4-2,4.4-4.4c0-2.4-2-4.4-4.4-4.4c-2.4,0-4.4,2-4.4,4.4
				C270.9,232.2,272.9,234.2,275.3,234.2z"/>
		</g>
		<g>
			<path fill="#FFFFFF" d="M634.5,730.3c-19.4-6.4-30.5,12.6-49,11.3c-0.4,0-0.5,0.6-0.1,0.7c1.3,0.4,2.5,0.7,3.7,0.9
				c10.2,10.6,23.6,18.9,38.4,20.2c8.8,0.8,20.1-5.1,19-14C647.5,741.5,642.2,732.9,634.5,730.3z M623.9,758.9
				c-5.6-0.2-11.4-2.8-16.4-5c-5.8-2.6-10.6-6.9-15.9-10.5c5.2,0.1,10-1.8,15.1-4.3c7.9-3.9,14.6-7.4,23.6-5.5
				c9.1,1.9,12,8.9,12.7,16.6C641.3,759.4,630.3,759.1,623.9,758.9z"/>
			<path fill="#FFFFFF" d="M579.3,691.5c2.9-4.3,7.1-7.2,11.2-10.3c0.9-0.7,0.8-1.7,0.2-2.4c-4.4-9.7,2.6-18.7,11.7-21.6
				c7.5-2.4,16.4,1.5,21.5,7c0.5,0.5,1.4-0.2,1-0.7c-0.1-0.2-0.3-0.3-0.4-0.5c0.2-0.1,0.3-0.3,0.2-0.6c-5.2-13.4-23-19.8-36-13.6
				c-17,8.1-22,26.6-13,42.8C576.4,692.9,578.4,692.8,579.3,691.5z M589.2,654.7c6.4-3.9,12.9-4,18.9-2c-3.4-0.4-7.1,0.1-10.9,1.7
				c-10,4.2-13.2,15-10.4,24.6c-3.1,2.5-6,5-8.7,7.7C573.1,674.6,577.8,661.6,589.2,654.7z"/>
			<path fill="#FFFFFF" d="M666.6,664.2c2.7,0,4.9-2.2,4.9-4.9c0-2.7-2.2-4.9-4.9-4.9c-2.7,0-4.9,2.2-4.9,4.9
				C661.7,661.9,663.9,664.2,666.6,664.2z"/>
			<path fill="#FFFFFF" d="M656.2,680c5.2-3.7,7.4-13.1,1.2-17c-2.8-1.7-5.6-1.6-8.4-0.2c-1.7,0.8-2.7,2.1-3.4,3.6
				c-2,2.2-3.3,5.1-3.1,8.1C642.9,681.6,651,683.7,656.2,680z M653.7,667.8c1.9,0.4,1.6,3.2,1.2,4.4c-0.4,1.5-1.8,3.1-3.2,3.7
				c-2.9,1.2-3.9-1-3.8-3.3C649.1,670.6,651.4,667.3,653.7,667.8z"/>
			<path fill="#FFFFFF" d="M658.2,682.3c-0.3-0.1-0.7,0.3-0.5,0.6c2.5,3.4,5.7,6.2,8.7,9.2c1,1,3.2,0.7,3.5-0.9
				c0.7-4.1,1.4-8.4,3.1-12.3c1-2.3,2.4-3.8,4-5c1.6,1.3,3,2.8,4,5c1.7,3.9,2.3,8.1,3.1,12.3c0.3,1.6,2.5,1.9,3.5,0.9
				c3-2.9,6.2-5.8,8.7-9.2c0.2-0.3-0.1-0.7-0.5-0.6c-2.9,1.1-5.5,2.7-8,4.5c-0.9-7.5-3.6-17.3-10.9-19.6
				c-7.2,2.3-9.9,12.1-10.9,19.6C663.7,685,661.1,683.4,658.2,682.3z"/>
			<path fill="#FFFFFF" d="M616.5,707.4c-11-1.7-22-1.8-32.6-5.3c-7.2-2.4-13-7.7-16.9-14c-3.5-5.8-2.2-13.1-2.9-19.5
				c-1.3-12.6-18.9-16.3-25.6-5.5c-8.9,14.5,0.5,32.4,13.3,41.2c8.3,5.7,16.8,8.6,26.7,10c11.6,1.6,20.4-1.2,30.9-4.7
				c2.5-0.2,4.9-0.6,7.1-1C617,708.4,617.1,707.5,616.5,707.4z M557.2,701.7c-8.5-4.9-14.3-13.1-17-22.4
				c-5.1-17.8,18.2-14.3,18.5-4.6c0.1,3.4,0.3,6.6,0.9,10c3.3,17.5,21.5,24.1,38.4,25C584,710.7,569.3,708.8,557.2,701.7z"/>
			<path fill="#FFFFFF" d="M604.7,673.3c-5,10.6,3.1,24,12.2,29.4c0.3,0.2,0.6-0.2,0.4-0.4c-2.8-5.8-7.2-10.3-9.2-16.5
				c-3.2-9.6,5.1-18.3,14-12.7c2.3,1.4,5.3-1.5,3.8-3.8C619.9,660.7,608.6,665.1,604.7,673.3z"/>
			<path fill="#FFFFFF" d="M587.6,692.3c4.1,4.5,10,7.8,16.2,7.7c0.8,0,1.4-1.1,0.7-1.7c-4-3.6-8.4-6.8-12.5-10.3
				C588.9,685.5,584.9,689.4,587.6,692.3z"/>
			<path fill="#FFFFFF" d="M529.9,712.7c14.6,24.5,34.4,55.7,67.6,51c1.6,1,3.2,1.9,4.9,2.7c-32,12.7-54.3-13.9-74.8-34.7
				c-0.4-0.4-1.2,0.1-0.9,0.7c15,25,48.9,60,80.7,39.1c0.9-0.6,1.4-1.3,1.5-2.1c1.7,0.7,3.5,1.3,5.2,1.8
				c-11.3,15.2-28.5,18-45.3,8.9c-15.6-8.4-29.3-19.7-45.2-27.8c-0.3-0.2-0.7,0.3-0.4,0.5c22.8,20.6,74.4,64.1,97.8,20
				c1.8,0.3,3.5,0.6,5.3,0.8c0.4,0,0.7,0,1.1,0.1c-7.7,23.2-32.4,34.1-55,24.2c-14.5-6.3-23.3-22.4-39.6-25
				c-0.6-0.1-0.9,0.6-0.4,0.9c18.7,13,32.6,32.2,56.7,34.3c20.8,1.8,38.5-13.7,44.8-32.4c2.5,9.2,0.8,17.9-2.7,26.8
				c-0.2,0.6,0.6,0.9,0.9,0.5c8.6-7.4,10.4-19.9,7.5-30.4c8,10,3,23.3,0.9,34.5c-0.1,0.7,0.7,1,1.1,0.4c8-11.8,12.2-26.5,3.4-38.8
				c0.3-0.2,0.5-0.4,0.8-0.6c7.7,5.3,10.5,17.1,7.5,25.8c-0.4,1.2,1.5,1.9,2,0.8c5.4-11.3,3.2-22.3-4.7-31.8
				c3.3-5.1,4.4-11.5,2.3-18.4c-1.8-10.3-9.6-18.7-20.8-22.4c-8.6-2.8-18.5,0.1-26.8,2.4c-14.9,4-28.1,7.4-43.6,4.3
				c-0.1,0-0.2,0.2-0.1,0.2c13.1,6.9,27.5,4.2,41.4,1.2c11.6-2.5,21.9-6.1,33.4-0.8c10.7,5,12.6,14.7,12.3,24.8
				c-2.2,5.1-7.3,9.2-12.5,11.2c-7.5,2.9-16.8,0.7-24.1-1.3c-13.6-3.7-26.2-11.4-36.8-20.5c-0.1-0.1-0.3,0.1-0.2,0.2
				c4.7,5.5,10.1,10.6,16.1,15c-27.4-2.8-45.2-24.6-60.2-46.7C530.2,712,529.6,712.3,529.9,712.7z"/>
			<path fill="#FFFFFF" d="M726.7,763.4c14.8-1.3,28.2-9.5,38.4-20.2c1.2-0.2,2.5-0.5,3.7-0.9c0.4-0.1,0.3-0.8-0.1-0.7
				c-18.5,1.2-29.7-17.7-49-11.3c-7.8,2.6-13,11.2-12,19.1C706.6,758.4,717.9,764.2,726.7,763.4z M723.8,733.7
				c9.1-1.8,15.8,1.7,23.6,5.5c5.1,2.5,9.9,4.4,15.1,4.3c-5.2,3.5-10.1,7.9-15.9,10.5c-5,2.2-10.8,4.8-16.4,5
				c-6.5,0.2-17.5,0.5-19.2-8.6C711.8,742.5,714.7,735.5,723.8,733.7z"/>
			<path fill="#FFFFFF" d="M848.5,699.6c-0.3-0.4-0.7-0.6-1.1-0.7c6.6-13.4,9.7-28.6-3.6-34.8c-0.5-0.2-0.9-0.3-1.3-0.2
				c1.9-11.2,0.1-21.8-11-29.4c1.5-16-1.3-31.1-16.2-33.9c1.4-9.5,3.8-18.7,8.2-28.3c2.8-6.1-0.9-12.5-7-12.2
				c-6.4-0.9-11,7.9-13.2,13.5c-1.2,2.9-2,5.9-2.6,8.9c-0.3,0.1-0.7,0.3-1,0.7c-12.8,15.5-10,33.1-4.3,50.5
				c-9.1-13.1-29.5-11.7-42.9-6.8c-18.1,6.7-28.4,19.5-32.4,37.3c-1.7-2-2.7-4.6-4.3-6.7c-1.4-1.9-3.3-3.2-5.3-4.3
				c-3.7-2.1-8.1-1.6-11.9,0c-0.1-2.7-1.8-5.2-3.9-7c-2.3-2.1-5.7-2.4-8.8-2c-1.4-4.1-5.5-6.8-8.8-9.5c-3.3,2.8-7.4,5.4-8.8,9.5
				c-3.1-0.4-6.5-0.1-8.8,2c-2.1,1.8-3.8,4.3-3.9,7c-3.8-1.6-8.2-2.1-11.9,0c-2,1.1-3.9,2.4-5.3,4.3c-1.6,2.1-2.6,4.7-4.3,6.7
				c-4-17.8-14.3-30.6-32.4-37.3c-13.4-5-33.8-6.4-42.9,6.8c5.7-17.3,8.5-35-4.3-50.5c-0.3-0.4-0.6-0.6-1-0.7c-0.6-3-1.5-6-2.6-8.9
				c-2.2-5.6-6.8-14.3-13.2-13.5c-6.1-0.2-9.8,6.1-7,12.2c4.4,9.6,6.8,18.8,8.2,28.3c-14.9,2.9-17.7,18-16.2,33.9
				c-11,7.6-12.9,18.3-11,29.4c-0.4,0-0.9,0-1.3,0.2c-13.3,6.2-10.3,21.5-3.6,34.8c-0.4,0.1-0.8,0.3-1.1,0.7
				c-6.5,8.6-3.5,17.6,2.3,24.9c-0.1,0.1-0.2,0.2-0.3,0.4c-10.1,15.9-2.7,38.8,12.2,49.6c-5.9,5.5-6.2,13.7-1.3,20.1
				c5.5,7.2,15.6,6.5,21.9,0.9c3.9,4.5,7.4,9.5,10.8,12.5c6.7,5.8,14.9,9.4,23.3,11.8c15.5,4.3,34.2,1.5,47.4-7.7
				c2,3.5,6.3,5.9,11,6.7c17.8,2.8,25.1-23.5,43.7-19.8c0.1,0,0.1,0,0.2,0c0.1,0,0.1,0,0.2,0c18.5-3.7,25.8,22.7,43.7,19.8
				c4.7-0.8,9-3.2,11-6.7c13.3,9.2,32,12,47.4,7.7c8.4-2.3,16.7-5.9,23.3-11.8c3.4-3,6.9-8,10.8-12.5c6.3,5.6,16.4,6.3,21.9-0.9
				c4.9-6.4,4.6-14.6-1.3-20.1c14.9-10.8,22.3-33.8,12.2-49.6c-0.1-0.1-0.2-0.3-0.3-0.4C852,717.2,855,708.2,848.5,699.6z
				 M832.7,735.6c-0.2,0.3,0.1,0.8,0.4,0.6c3.1-2,6.5-4.7,9.5-7.7c5.2,9.1,4.7,20.1-0.2,29.5c-3.4,6.5-8.7,11.8-11.9,18.3
				c-0.2,0.3,0.2,0.6,0.5,0.5c0.9-0.5,1.7-1.1,2.6-1.7c4.3,5.1,5,14.1-1.5,18c-4.8,2.9-10.6,2.7-14.8-1.1c0,0-0.1,0-0.1-0.1
				c4.1-3.9,8.6-6.6,14-5.5c0.4,0.1,0.6-0.4,0.2-0.6c-15.1-10.1-24.5,13.5-34.7,20.3c-19.8,13.3-43.9,13.3-63.5-0.2c0,0,0,0-0.1,0
				c-0.2-1.1-0.6-2.3-1.2-3.5c-0.3-0.5-1.1-0.3-1.1,0.3c-4.1,11.6-10.5,14.6-19.4,8.9c-2.8-1.8-5.5-3.9-7.9-6.2
				c-2.7-2.5-5.6-5.3-8.8-7.3c-2.6-1.6-5-2.7-7.4-3.5c0.1-0.3,0.1-0.6,0-1c-3-23.4,2.6-46.9,19.1-64.4c1.8-1.9,3.6-3.7,5.5-5.5
				c21.3-10.1,40.8,2.6,63.3,1.5c16.2-0.8,30.6-7.6,40.3-20.7c0.3-0.4-0.3-0.9-0.7-0.5c-10,8.7-22.6,15.6-36.2,15.9
				c-11.6,0.3-22.3-3-33.7-5c-7.4-1.3-15.5-2.2-23-1c3.9-4.1,7.4-8.5,9.8-13.4c0.2-0.1,0.3-0.3,0.5-0.4c5.6-6.2,6.7-18.1-2.5-21.9
				c-4.2-1.7-8.6-1-11.8,2.3c-2.2,2.3-3.3,6.8-0.8,9.2c0.5,0.5,1.4,0.3,1.5-0.4c0.5-2.1,0.3-4.5,2.1-6c2.2-2,6.1-2,8.2,0.2
				c3.7,3.9,2.7,9.1-0.7,12.7c-0.3,0.3-0.5,0.7-0.6,1c-5.4,5.9-10.7,11.7-16.5,17.3c-6.9,6.6-14.1,13.3-19.2,21.5
				c-11,17.5-15.6,37.3-12.2,57.8c-0.9,0-1.8,0.1-2.7,0.3c-0.9-0.1-1.8-0.2-2.7-0.3c3.3-20.5-1.3-40.3-12.2-57.8
				c-5.1-8.1-12.3-14.9-19.2-21.5c-5.8-5.5-11.1-11.4-16.5-17.3c-0.1-0.4-0.3-0.7-0.6-1c-3.4-3.6-4.4-8.9-0.7-12.7
				c2.1-2.2,6-2.2,8.2-0.2c1.8,1.6,1.6,4,2.1,6c0.2,0.7,1.1,0.9,1.5,0.4c2.4-2.5,1.4-6.9-0.8-9.2c-3.2-3.3-7.6-4-11.8-2.3
				c-9.2,3.8-8.1,15.7-2.5,21.9c0.1,0.2,0.3,0.3,0.5,0.4c2.4,4.9,5.9,9.3,9.8,13.4c-7.5-1.2-15.6-0.3-23,1c-11.3,2-22,5.3-33.7,5
				c-13.6-0.3-26.1-7.2-36.2-15.9c-0.4-0.3-1,0.1-0.7,0.5c9.8,13.1,24.1,19.9,40.3,20.7c22.5,1.1,42-11.6,63.3-1.5
				c1.9,1.8,3.8,3.6,5.5,5.5c16.5,17.4,22.1,41,19.1,64.4c0,0.4,0,0.7,0,1c-2.5,0.7-4.9,1.9-7.4,3.5c-3.2,2-6,4.8-8.8,7.3
				c-2.4,2.3-5.1,4.4-7.9,6.2c-8.8,5.7-15.3,2.8-19.4-8.9c0.1-0.6-0.8-0.8-1.1-0.3c-0.6,1.2-1,2.4-1.2,3.5c0,0,0,0-0.1,0
				c-19.6,13.5-43.7,13.5-63.5,0.2c-10.2-6.8-19.6-30.4-34.7-20.3c-0.3,0.2-0.1,0.6,0.2,0.6c5.3-1,9.9,1.6,14,5.5c0,0-0.1,0-0.1,0.1
				c-4.3,3.9-10,4-14.8,1.1c-6.5-3.9-5.8-12.8-1.5-18c0.8,0.6,1.7,1.2,2.6,1.7c0.3,0.2,0.6-0.2,0.5-0.5c-3.2-6.5-8.5-11.8-11.9-18.3
				c-4.9-9.3-5.4-20.3-0.2-29.5c3,3.1,6.4,5.7,9.5,7.7c0.4,0.2,0.7-0.3,0.4-0.6c-7.9-9.8-16.6-19.9-12.7-32.8
				c3.8,6.8,8.2,12.7,11.4,16.3c0.4,0.4,1-0.1,0.7-0.6c-5.7-10.2-24.2-42.5-8.2-50c2.6,10.4,7.9,20.8,11.5,29.4
				c0.3,0.6,1.2,0.2,1.1-0.4c-4.3-17.8-18.6-42.2-1.9-57.2c1.8,12.1,5.4,23.9,7.6,30.6c0.2,0.6,1.1,0.4,1-0.3
				c-2.1-14.7-13.3-58.5,7.6-64.4c0.7,6.7,0.9,13.5,0.9,20.8c0,0.5,0.7,0.6,0.8,0.1c1.7-9.7,3-19.3,2.5-29.2c-0.3-5-1.5-9.8-3-14.5
				c-0.4-1.2-9.3-17.5-3.9-19c5.8-0.6,12.7,18.3,13.6,20.9c2.6,7.3,3.2,14.6,2.6,22.2c0,0.3,0.5,0.4,0.5,0.1
				c0.9-5.3,1.3-10.7,1.1-16.1c8.1,15,4.4,33.7,0.8,49.7c-0.1,0.4,0.4,0.5,0.6,0.2c0.5-1.5,1.1-3,1.6-4.4
				c11.8-10.6,23.7-11.9,38.9-6.9c15.6,5,33,19.3,33.7,37.1c0,0.3,0.1,0.5,0.2,0.7c0,1.2,1.2,2.5,2.6,2.1c3.6-1.1,5.3-3.5,6.9-6.7
				c3.2-6.4,9.2-9.2,16.1-7.3c0,0,0,0.1,0,0.1c0.3,0.6,1.1,0.5,1.4,0c0.3-0.2,0.5-0.5,0.5-0.9c2.6-4.3,4.8-8.9,11.1-6.9
				c1.3,0.4,2.3-0.7,2.5-1.9c0.3-2.5,3-5,5.3-7.1c2.4,2.1,5,4.6,5.3,7.1c0.1,1.2,1.1,2.3,2.5,1.9c6.3-1.9,8.5,2.6,11.1,6.9
				c0,0.4,0.2,0.7,0.5,0.9c0.3,0.5,1.2,0.6,1.4,0c0,0,0-0.1,0-0.1c6.9-1.8,12.9,0.9,16.1,7.3c1.6,3.2,3.4,5.6,6.9,6.7
				c1.4,0.4,2.6-0.9,2.6-2.1c0.1-0.2,0.2-0.4,0.2-0.7c0.7-17.7,18.1-32,33.7-37.1c15.3-4.9,27.2-3.6,38.9,6.9c0.5,1.5,1.1,3,1.6,4.4
				c0.1,0.3,0.6,0.2,0.6-0.2c-3.5-16-7.3-34.8,0.8-49.7c-0.3,5.4,0.1,10.8,1.1,16.1c0.1,0.3,0.5,0.2,0.5-0.1
				c-0.6-7.6,0-14.9,2.6-22.2c1-2.7,7.8-21.5,13.6-20.9c5.4,1.5-3.5,17.7-3.9,19c-1.5,4.7-2.8,9.6-3,14.5
				c-0.5,9.9,0.8,19.5,2.5,29.2c0.1,0.5,0.8,0.4,0.8-0.1c0-7.3,0.2-14.1,0.9-20.8c20.9,5.9,9.7,49.7,7.6,64.4
				c-0.1,0.6,0.8,0.9,1,0.3c2.1-6.7,5.8-18.5,7.6-30.6c16.7,15,2.4,39.4-1.9,57.2c-0.1,0.6,0.8,1.1,1.1,0.4
				c3.7-8.6,8.9-19.1,11.5-29.4c16,7.5-2.6,39.7-8.2,50c-0.3,0.5,0.4,1,0.7,0.6c3.2-3.5,7.6-9.5,11.4-16.3
				C849.3,715.7,840.6,725.8,832.7,735.6z"/>
			<path fill="#FFFFFF" d="M730.3,664.1c5.1-5.5,14-9.4,21.5-7c9,2.9,16.1,11.9,11.7,21.6c-0.6,0.7-0.7,1.7,0.2,2.4
				c4,3.1,8.3,6,11.2,10.3c0.8,1.3,2.9,1.5,3.7,0c9-16.2,3.9-34.8-13-42.8c-12.9-6.1-30.8,0.2-36,13.6c-0.1,0.3,0,0.5,0.2,0.6
				c-0.1,0.2-0.3,0.3-0.4,0.5C729,663.9,729.9,664.6,730.3,664.1z M765,654.7c11.3,6.9,16,19.9,11.1,32c-2.7-2.8-5.7-5.2-8.7-7.7
				c2.8-9.7-0.4-20.4-10.4-24.6c-3.8-1.6-7.5-2.1-10.9-1.7C752.1,650.7,758.6,650.8,765,654.7z"/>
			<path fill="#FFFFFF" d="M677.1,732.6c-9-16.9-23.6-31.3-40.9-37.3c-0.4-0.1-0.7,0.4-0.4,0.7c9.9,9,19.7,17.9,27.5,28.7
				c6.2,8.6,10.3,18,13.7,27.9c3.4-9.8,7.5-19.3,13.7-27.9c7.9-10.8,17.7-19.8,27.5-28.7c0.3-0.3,0-0.8-0.4-0.7
				C700.6,701.3,686.1,715.7,677.1,732.6z"/>
			<path fill="#FFFFFF" d="M700,689.4c-9.3,4.6-17,11.5-22.9,19.8c-5.9-8.3-13.6-15.2-22.9-19.8c-0.5-0.2-0.9,0.3-0.6,0.7
				c8.6,11.1,16.7,22.2,23.5,34.4c6.8-12.2,14.8-23.3,23.5-34.4C700.9,689.8,700.5,689.2,700,689.4z"/>
			<path fill="#FFFFFF" d="M687.6,664.2c2.7,0,4.9-2.2,4.9-4.9c0-2.7-2.2-4.9-4.9-4.9c-2.7,0-4.9,2.2-4.9,4.9
				C682.7,661.9,685,664.2,687.6,664.2z"/>
			<path fill="#FFFFFF" d="M698,680c5.2,3.7,13.4,1.5,13.8-5.6c0.2-3-1.1-5.9-3.1-8.1c-0.7-1.5-1.7-2.8-3.4-3.6
				c-2.9-1.4-5.7-1.5-8.4,0.2C690.5,666.9,692.7,676.4,698,680z M700.4,667.8c2.3-0.5,4.6,2.7,5.8,4.8c0.1,2.2-1,4.5-3.8,3.3
				c-1.5-0.6-2.8-2.2-3.2-3.7C698.9,671,698.6,668.2,700.4,667.8z"/>
			<path fill="#FFFFFF" d="M815.7,663.1c-6.6-10.8-24.2-7.1-25.6,5.5c-0.7,6.4,0.6,13.7-2.9,19.5c-3.9,6.3-9.7,11.7-16.9,14
				c-10.6,3.5-21.7,3.6-32.6,5.3c-0.6,0.1-0.5,1,0,1.1c2.2,0.4,4.6,0.8,7.1,1c10.5,3.5,19.3,6.3,30.9,4.7c9.9-1.3,18.4-4.3,26.7-10
				C815.2,695.5,824.6,677.6,815.7,663.1z M813.9,679.3c-2.7,9.3-8.5,17.5-17,22.4c-12.1,7-26.8,9-40.9,8c17-0.9,35.1-7.5,38.4-25
				c0.6-3.4,0.8-6.5,0.9-10C795.7,665,819.1,661.5,813.9,679.3z"/>
			<path fill="#FFFFFF" d="M749.5,673.3c-3.9-8.2-15.2-12.6-21.2-3.9c-1.6,2.3,1.5,5.2,3.8,3.8c9-5.6,17.2,3.1,14,12.7
				c-2.1,6.2-6.5,10.7-9.2,16.5c-0.1,0.3,0.1,0.6,0.4,0.4C746.4,697.3,754.5,683.9,749.5,673.3z"/>
			<path fill="#FFFFFF" d="M762.2,688c-4.2,3.5-8.6,6.7-12.5,10.3c-0.7,0.6-0.1,1.7,0.7,1.7c6.1,0.1,12.1-3.2,16.2-7.7
				C769.3,689.4,765.2,685.5,762.2,688z"/>
			<path fill="#FFFFFF" d="M830.6,752.2c-15.9,8.1-29.6,19.4-45.2,27.8c-16.9,9.1-34,6.3-45.3-8.9c1.8-0.5,3.5-1.1,5.2-1.8
				c0.2,0.8,0.6,1.5,1.5,2.1c31.8,20.9,65.7-14.1,80.7-39.1c0.3-0.5-0.4-1.1-0.9-0.7c-20.6,20.8-42.9,47.4-74.8,34.7
				c1.7-0.8,3.3-1.7,4.9-2.7c33.2,4.7,53-26.5,67.6-51c0.2-0.4-0.3-0.7-0.6-0.3c-15,22.1-32.8,43.9-60.2,46.7
				c5.9-4.4,11.3-9.5,16.1-15c0.1-0.1-0.1-0.3-0.2-0.2c-10.6,9-23.2,16.8-36.8,20.5c-7.4,2-16.6,4.2-24.1,1.3
				c-5.2-2-10.3-6-12.5-11.2c-0.4-10.1,1.6-19.9,12.3-24.8c11.5-5.3,21.8-1.7,33.4,0.8c13.9,3,28.3,5.7,41.4-1.2
				c0.1-0.1,0-0.3-0.1-0.2c-15.5,3.1-28.7-0.2-43.6-4.3c-8.3-2.3-18.3-5.2-26.8-2.4c-11.2,3.7-19,12-20.8,22.4
				c-2.1,6.9-1,13.4,2.3,18.4c-8,9.5-10.1,20.5-4.7,31.8c0.5,1.1,2.4,0.3,2-0.8c-3-8.7-0.2-20.5,7.5-25.8c0.2,0.2,0.5,0.4,0.8,0.6
				c-8.8,12.3-4.6,27,3.4,38.8c0.4,0.6,1.2,0.2,1.1-0.4c-2.1-11.2-7.1-24.6,0.9-34.5c-3,10.6-1.1,23,7.5,30.4c0.4,0.3,1.2,0,0.9-0.5
				c-3.6-9-5.2-17.6-2.7-26.8c6.3,18.7,24,34.2,44.8,32.4c24.1-2.1,38-21.3,56.7-34.3c0.5-0.3,0.2-1-0.4-0.9
				c-16.3,2.6-25.2,18.7-39.6,25c-22.6,9.9-47.3-1.1-55-24.2c0.4,0,0.7,0,1.1-0.1c1.8-0.2,3.5-0.5,5.3-0.8c23.3,44,75,0.6,97.8-20
				C831.3,752.5,831,752.1,830.6,752.2z"/>
		</g>
		<g>
			<path fill="#FFFFFF" d="M1041.5,697.2c-21.4-9.8-48.2-4.5-70.8-4.1c0,0-0.1,0-0.1,0c-0.8-0.4-1.6,0.6-1,1.3
				c13.7,17.6,24.1,38.4,45,48.6c21,10.3,47.6,5.3,69.2,0c0.4-0.1,0.7-0.2,0.9-0.4c0,0,0.1,0,0.1-0.1c0,0,0.1-0.1,0.1-0.1
				c1.2-0.8,1.8-2.3,0.7-3.8C1073.2,722.4,1060.5,705.9,1041.5,697.2z M1010.7,734.7c-16.3-9-25.1-27.8-38.6-40.2
				c19.9,4.2,40.5-0.4,60.4,4.8c19.8,5.2,33.8,22.9,45.3,39C1055.4,742.7,1031.6,746.3,1010.7,734.7z"/>
			<path fill="#FFFFFF" d="M1097.6,663.4c6.6,7.5,11,16.1,14.8,25.1c3.9-9,8.2-17.6,14.8-25.1c6.1-6.8,14.3-11.8,20-18.8
				c6.8-8.3,9.7-19.1,0-26.4c-7.8-5.9-16.2,3.4-13.9,11c2.2,7.1,10.3,5.8,13.8,1.1c1.1,4.2-0.1,7.8-3.6,10.6
				c-0.8,0.7-1.6,1.5-2.3,2.2c-2.5,2.1-5.1,4-7.6,6.1c-4.6,3.9-9.1,8-12.9,12.7c-3,3.7-5.8,7.6-8.3,11.6c-2.5-4-5.3-7.9-8.3-11.6
				c-3.8-4.7-8.3-8.8-12.9-12.7c-2.5-2.1-5.1-4-7.6-6.1c-0.8-0.7-1.6-1.5-2.3-2.2c-3.5-2.8-4.7-6.4-3.6-10.6
				c3.4,4.6,11.6,5.9,13.8-1.1c2.3-7.6-6.1-16.9-13.9-11c-9.6,7.3-6.8,18.1,0,26.4C1083.3,651.6,1091.5,656.6,1097.6,663.4z"/>
			<path fill="#FFFFFF" d="M1083.5,594.8c2.4,0.2,4.4-2.2,4.4-4.4s-2-4.6-4.4-4.4c-0.1,0-0.2,0-0.3,0c-2.4,0.2-4.4,1.8-4.4,4.4
				c0,2.6,2,4.2,4.4,4.4C1083.3,594.7,1083.4,594.7,1083.5,594.8z"/>
			<path fill="#FFFFFF" d="M1097.3,579.1c2.5,0,5.1-2.2,4.8-4.8c0-0.1,0-0.2,0-0.3c-0.2-2.6-2-4.8-4.8-4.8s-4.6,2.2-4.8,4.8
				c0,0.1,0,0.2,0,0.3C1092.2,576.9,1094.8,579.1,1097.3,579.1z"/>
			<path fill="#FFFFFF" d="M1106.5,575.1c-0.1-1.4-2.1-1.4-2.1,0c-0.2,5.6-5.7,8.2-10.5,5.8c-0.3-0.1-0.6,0.2-0.4,0.5
				C1098.6,586.4,1106.9,581.9,1106.5,575.1z"/>
			<path fill="#FFFFFF" d="M1081.8,596.9c-0.4,0-0.6,0.6-0.2,0.8c4.3,2.1,10.6-1.6,11-6.4c0.1-1-1.4-1.4-1.9-0.5
				c-0.8,1.8-1.4,3.3-3.1,4.5C1085.9,596.4,1083.9,596.8,1081.8,596.9z"/>
			<path fill="#FFFFFF" d="M1075.7,611c15.6-4.8,20.9,13.4,24,24.7c2.2,8.2,5.4,15.7,11.9,21.4c0.2,0.2,0.5,0.4,0.8,0.5
				c0.3-0.1,0.5-0.3,0.8-0.5c6.6-5.6,9.7-13.2,11.9-21.4c3.1-11.3,8.4-29.4,24-24.7c0.4,0.1,0.6-0.5,0.3-0.7
				c-8.3-5.5-17.3-1.6-23.2,5.6c-7.3,8.9-7.6,21.2-13.8,30.4c-6.2-9.2-6.5-21.5-13.8-30.4c-5.9-7.2-14.9-11.1-23.2-5.6
				C1075.1,610.5,1075.3,611.1,1075.7,611z"/>
			<path fill="#FFFFFF" d="M1103.9,587.4c0.7,8.5,2.1,17.1,8.6,23.1c6.5-6.1,7.9-14.7,8.6-23.1c0.1-0.8-1.2-1.2-1.6-0.4
				c-2,4.4-4,9-7,12.8c-3-3.8-5-8.4-7-12.8C1105.1,586.2,1103.8,586.5,1103.9,587.4z"/>
			<path fill="#FFFFFF" d="M1112.4,722.2c20.3-9.1,37.6-24.7,52-41.4c13.9-16.2,25.2-36,19.8-58c-0.1-0.5-0.8-0.4-0.8,0.1
				c-0.3,23.5-13.6,42.1-29.5,58.4c-11.5,11.9-23.7,22.3-38,29.9c3.1-7.2,6.1-14.5,10.7-21.1c7.7-11,17.4-19.4,26.8-28.8
				c12.3-12.4,22.4-29.6,10.7-45.7c-0.6-0.8-1.7-0.1-1.3,0.7c12.7,26.7-22.5,43.4-36.2,60.2c-5.1,6.2-10.2,13.2-14.2,20.8
				c-4-7.5-9.2-14.6-14.2-20.8c-13.7-16.7-48.9-33.4-36.2-60.2c0.4-0.9-0.7-1.5-1.3-0.7c-11.7,16.2-1.6,33.4,10.7,45.7
				c9.4,9.4,19.1,17.8,26.8,28.8c4.6,6.6,7.6,13.9,10.7,21.1c-14.3-7.6-26.4-18.1-38-29.9c-15.9-16.3-29.2-34.8-29.5-58.4
				c0-0.5-0.7-0.6-0.8-0.1c-5.4,22,5.9,41.8,19.8,58C1074.8,697.5,1092.1,713.1,1112.4,722.2z"/>
			<path fill="#FFFFFF" d="M956.6,667.3c-2.4,6.9,5.9,15.7,11.7,9.1c0.2-0.3,0-0.8-0.4-0.7c-3.6,1.3-6.9-1.4-7-5.1
				c-0.1-3.5,2.8-6,5.4-7.8c3.8-2.5,8.3-3.5,12.8-3.9c2,0.3,3.9,0.7,5.8,1.1c15.9,3.6,30,13,44.3,21c-15.7-2.7-32.3-1.6-46.3-9.8
				c-0.1-0.1-0.2,0.1-0.1,0.2c14,12.7,32,11.3,49.3,15.5c11.6,2.8,21.7,10.1,30.3,17.9c8.1,7.4,13,17.2,20.5,24.9
				c2.5,2.6,7.1,6,10.9,3.8c3.1-1.7,6.2-4.8,4.4-8.8c-2.7-6-9.5-4.6-11.3-0.6c-0.3-0.4-0.6-0.8-0.9-1.3c-1.5-1.9-3.1-3.8-4.7-5.7
				c-3.1-3.8-6.4-7.5-9.7-11.2c-2.5-2.7-5.2-5.2-8-7.6c-15.2-19-46.7-33.3-40.3-61.6c0-0.2-0.2-0.4-0.4-0.2
				c-8.7,11.2-4.5,23.6,4.3,34.8c-24.3-13-49.4-27.6-77-15.1c-10.9,4.9-18.1,15.8-15.6,27.6c2,9.4,13.3,11.8,19.7,5.8
				c0.5-0.4,0-1.2-0.6-1.1c-16.7,5-15.3-13-9.8-19.9c2.5-3.1,6.1-5.1,9.6-7c3.1-1.7,6.5-2.7,10-3.2
				C960.5,660.8,957.9,663.6,956.6,667.3z"/>
			<path fill="#FFFFFF" d="M1283.6,636.7c-11.8-4.8-22.9-4.9-35.3-2.7c-11,1.9-21.9,2.9-30.8-5.3c-5.3-4.9-9.4-10.4-14-15.9
				c-12.7-15.4-33.1-25.6-52.2-17.9c2-5.3,0.7-11.7-5.3-14.2c-2.7-1.2-5.4-1.5-8-0.9c1.9-5.7,0.6-12.8-4.3-16.3
				c-3.4-2.4-7.4-3.2-11.2-1.8c-1.5-2.7-3-5.5-5-7.8c-1.6-1.9-3.4-3.6-5.2-5.3c-1.8,1.7-3.6,3.4-5.2,5.3c-2,2.3-3.5,5.1-5,7.8
				c-3.8-1.4-7.8-0.6-11.2,1.8c-4.9,3.5-6.2,10.6-4.3,16.3c-2.6-0.6-5.3-0.2-8,0.9c-5.9,2.6-7.3,9-5.3,14.2
				c-19.1-7.7-39.4,2.5-52.2,17.9c-4.5,5.5-8.7,11.1-14,15.9c-8.9,8.2-19.8,7.2-30.8,5.3c-12.4-2.2-23.5-2.1-35.3,2.7
				c-21.2,8.7-35.2,32.3-28.9,54.9c3.8,13.5,16.9,21.7,29.2,20c6.8,7.6,11.7,15.9,14.5,25.8c2.4,8.6-1.1,17.3,0.9,25.5
				c0.9,3.7,3.3,8,8,7.7c8.5-0.6,15.1-0.1,20.7,7.3c3.7,4.9,5.3,11.6,7.6,17.3c4.8,12.3,15.4,22.7,29.7,19.2c9-2.2,16-6.9,23.3-12.5
				c9.9-7.5,18.2-10.9,30.3-12c12.7,15.5,20.9,44.1,35.9,43.7c15,0.5,23.3-28.2,35.9-43.7c12.1,1.2,20.4,4.5,30.3,12
				c7.3,5.6,14.3,10.2,23.3,12.5c14.3,3.6,24.9-6.8,29.7-19.2c2.2-5.7,3.9-12.3,7.6-17.3c5.6-7.5,12.2-7.9,20.7-7.3
				c4.7,0.3,7.1-3.9,8-7.7c2-8.1-1.5-16.9,0.9-25.5c2.8-9.9,7.8-18.3,14.5-25.8c12.3,1.8,25.4-6.5,29.2-20
				C1318.9,668.9,1304.9,645.3,1283.6,636.7z M920.5,695.3c-8.2-12.2-2.1-28.8,6.1-39c6.5-8.1,15.9-13.1,25.8-15.7
				c10.3-2.7,20.3,0.6,30.6,1.5c17.5,1.5,28.5-6.4,38.9-19.9c7.4-9.6,14.3-17.9,26-22.3c7.9-2.9,16.4-2.5,24.5-0.9
				c-7.9,0.4-15.8,1.3-23.4,3.8c-9.8,3.3-16.5,10.2-22.6,18.2c-7.7,10.1-15.7,18.1-28.1,22.1c-12.8,4.2-25.1-0.3-38,0
				c-17.6,0.4-37.8,16.9-40,34.8c-1.7,13.8,9.3,27.5,22.3,28.4C934.3,707.5,925.8,703.1,920.5,695.3z M1040.1,798.5
				c-12.2,9.2-28.2,15.9-38.5,0.1c-5.5-8.4-6.7-18.4-12.9-26.5c-3-3.9-8.4-7.9-13.5-8.1c-5.2-0.2-13.1-0.6-12.3-7.4
				c0.5-4.5,0.3-8.9-0.2-13.4c-1.5-12.7-7.8-24.3-17.2-32.6c1.1-0.4,2.1-0.8,3.1-1.3c11.2,12,18,26.5,18.7,43.1
				c0.2,5,3.1,7.7,7.8,8.7c5.1,1.1,9,0.6,13.3,4.1c3.8,3.1,6,7.9,7.8,12.3c4.8,11.6,9.6,25.4,24.8,24.1c7.1-0.6,13.4-5.5,19.2-9.3
				c8-5.3,16.5-8.8,25.8-11.1c1.6,0.6,3.1,1.5,4.6,2.6C1059.6,783.4,1048.1,792.5,1040.1,798.5z M1262.2,743.2
				c-0.5,4.5-0.7,8.8-0.2,13.4c0.7,6.8-7.2,7.2-12.3,7.4c-5.1,0.2-10.5,4.2-13.5,8.1c-6.2,8.1-7.4,18.2-12.9,26.5
				c-10.3,15.8-26.3,9.1-38.5-0.1c-8-6-19.5-15.2-30.4-14.7c1.5-1.1,3-2,4.6-2.6c9.2,2.4,17.8,5.8,25.8,11.1
				c5.8,3.8,12,8.7,19.2,9.3c15.2,1.3,20-12.4,24.8-24.1c1.8-4.4,4-9.2,7.8-12.3c4.4-3.5,8.2-3,13.3-4.1c4.7-1,7.6-3.7,7.8-8.7
				c0.7-16.6,7.5-31.1,18.7-43.1c1,0.5,2.1,1,3.1,1.3C1270,718.9,1263.7,730.5,1262.2,743.2z M1274.1,703.3
				c-0.8-0.5-1.7-1.1-2.5-1.8c-1.6-1.4-3.8,0.7-2.4,2.4c1.9,2.1,3.9,3.7,6.1,4.9c-9.8,8.4-16.6,20.4-18.8,33.1c-0.5,3-0.9,6-1.1,9.1
				c-0.3,7.6-5.2,7.9-11.2,8.4c-5.3,0.5-9.4,3.7-12.6,7.7c-8.9,11.1-10.1,38.8-31.2,31.4c-7.8-2.7-14-8.3-21.3-12
				c-5.1-2.6-10.4-4.8-15.8-6.3c2.4-0.2,4.9,0.1,7.6,1c0.4,0.1,0.5-0.4,0.2-0.6c-10-6.7-20.4-1.9-27.6,6.6
				c-4.8,5.6-9.1,11.6-12.8,18c-3.5,6.1-8.8,20.7-18.2,21.1c-9.4-0.4-14.7-15-18.2-21.1c-3.7-6.4-8-12.4-12.8-18
				c-7.3-8.5-17.6-13.3-27.6-6.6c-0.3,0.2-0.1,0.7,0.2,0.6c2.7-1,5.2-1.3,7.6-1c-5.5,1.6-10.7,3.8-15.8,6.3
				c-7.3,3.7-13.5,9.3-21.3,12c-21.1,7.3-22.3-20.4-31.2-31.4c-3.2-4-7.3-7.2-12.6-7.7c-6.1-0.6-10.9-0.9-11.2-8.4
				c-0.1-3.1-0.5-6.1-1.1-9.1c-2.3-12.8-9-24.7-18.8-33.1c2.2-1.2,4.2-2.9,6.1-4.9c1.5-1.6-0.7-3.7-2.4-2.4
				c-0.8,0.7-1.7,1.3-2.5,1.8c-9.7,1.6-18.8-0.7-24.9-9.6c-6.7-9.7-3-21.5,3.3-30.3c5.9-8.4,14.9-14.5,24.7-17.1
				c10.7-2.9,21.8,1.4,32.6,1.3c16.7-0.2,30.2-9.8,40-22.5c6.6-8.5,12.9-15.9,23.3-19.8c9.3-3.5,19.7-3.7,29.6-3.9
				c0.1,0,0.2,0,0.3,0c0.1,0,0.3,0,0.4,0c0.9,0,1.3-0.8,1.2-1.5c0.1-0.7-0.1-1.4-0.8-1.8c-5.3-3.1-5.9-10.3-0.8-14
				c2.4-1.7,5.6-1.9,8.2-0.8c0.6,0.3,1,0.6,1.4,1c0.2,0.2,0.4,0.4,0.6,0.6c1.1,1.3,1.5,3,2.8,4.3c0.1,0.2,0.4,0.2,0.6,0
				c1.8-2,0.4-4.9-1.4-6.8c-1.4-3.6-2.5-6.9-1.5-11.1c0.9-3.8,4.3-6.2,8.1-6.4c4.4-0.3,6.1,3.7,6.6,7.2c0.3,1.8,3.1,1.7,3.5,0
				c0.6-2.9-0.4-6-2.4-8.2c0.1-0.1,0.1-0.2,0.2-0.3c1.6-4,3.8-8.3,6.2-12c2.5,3.8,4.6,8.1,6.2,12c0,0.1,0.1,0.2,0.2,0.3
				c-2.1,2.2-3,5.3-2.4,8.2c0.4,1.7,3.2,1.8,3.5,0c0.5-3.5,2.2-7.6,6.6-7.2c3.7,0.3,7.1,2.6,8.1,6.4c1.1,4.2-0.1,7.5-1.5,11.1
				c-1.8,1.9-3.2,4.8-1.4,6.8c0.1,0.2,0.4,0.2,0.6,0c1.2-1.3,1.7-3,2.8-4.3c0.2-0.2,0.4-0.4,0.6-0.6c0.4-0.4,0.8-0.7,1.4-1
				c2.6-1.1,5.8-0.9,8.2,0.8c5.1,3.6,4.5,10.9-0.8,14c-0.8,0.4-1,1.2-0.8,1.8c-0.1,0.7,0.3,1.5,1.2,1.5c0.1,0,0.3,0,0.4,0
				c0.1,0,0.2,0,0.3,0c9.9,0.2,20.3,0.4,29.6,3.9c10.4,3.9,16.7,11.3,23.3,19.8c9.8,12.7,23.3,22.3,40,22.5
				c10.8,0.2,21.9-4.1,32.6-1.3c9.9,2.6,18.8,8.8,24.7,17.1c6.2,8.8,9.9,20.5,3.3,30.3C1293,702.5,1283.8,704.9,1274.1,703.3z
				 M1304.3,695.3c-5.2,7.8-13.8,12.2-22.2,11c13-0.9,24-14.7,22.3-28.4c-2.2-17.8-22.4-34.4-40-34.8c-12.9-0.3-25.2,4.2-38,0
				c-12.3-4-20.3-12.1-28.1-22.1c-6.1-8-12.9-14.9-22.6-18.2c-7.6-2.5-15.5-3.4-23.4-3.8c8.1-1.6,16.6-2,24.5,0.9
				c11.7,4.3,18.6,12.7,26,22.3c10.4,13.5,21.4,21.4,38.9,19.9c10.2-0.9,20.3-4.2,30.6-1.5c9.9,2.6,19.3,7.6,25.8,15.7
				C1306.5,666.5,1312.5,683.1,1304.3,695.3z"/>
			<path fill="#FFFFFF" d="M1140.1,742.6C1140.1,742.6,1140.1,742.7,1140.1,742.6c0.4,0.2,0.7,0.4,1,0.5c21.6,5.3,48.2,10.3,69.2,0
				c20.8-10.2,31.2-31.1,45-48.6c0.6-0.8-0.2-1.7-1-1.3c0,0-0.1,0-0.1,0c-22.7-0.4-49.5-5.7-70.8,4.1c-19.1,8.8-31.7,25.3-44.2,41.6
				c-1.1,1.5-0.5,3,0.7,3.8C1140,742.6,1140,742.6,1140.1,742.6z M1192.4,699.4c19.9-5.2,40.5-0.7,60.4-4.8
				c-13.5,12.4-22.3,31.2-38.6,40.2c-20.9,11.6-44.7,8-67.1,3.6C1158.6,722.3,1172.6,704.5,1192.4,699.4z"/>
			<path fill="#FFFFFF" d="M1265.7,694.8c-20.4,8.4-28,33-44.4,46.4c-26.5,21.7-61.4,10.2-89.9-0.6c-6.1-4.6-12.3-9.5-18.9-13.3
				c-6.7,3.7-12.8,8.7-18.9,13.3c-28.5,10.8-63.4,22.3-89.9,0.6c-16.4-13.4-23.9-38-44.4-46.4c-0.4-0.2-0.6,0.4-0.4,0.7
				c10.3,10.1,18.5,21,26.6,32.9c4.2,6.2,8.8,12.3,14.3,17.5c-0.2,0-0.5,0.1-0.7,0.1c-5.9,1.2-26.9,7.8-21.6-6.4
				c0.2-0.6-0.5-0.9-0.9-0.5c-4.9,4-2,9.8,2.2,13c8.6,6.6,19.8-2.5,29.2,0.3c0.5,0.3,1,0.7,1.6,1c12,7,27.9,8.4,43.7,6.3
				c-1.4,0.9-2.8,1.8-4.2,2.8c-3.3,2.3-6.3,5-9.3,7.7c-1.9,1.8-3.7,3.5-5.6,5.2c-1.8,1.4-3.6,2.7-5.3,4.1
				c-6.8,4.8-12.2,1.9-16.4-8.7c0.1-0.5-0.5-0.6-0.7-0.3c-7.1,9.3,4,19.1,13.9,17.1c9.2-1.9,15.3-8.7,22-14.8
				c8.2-7.4,18.1-13.7,28.1-18.4c6-2.1,11.7-4.6,16.6-7.3c6.9,3.7,13.6,7.7,20.2,11.8c6.6-4.1,13.3-8.1,20.2-11.8
				c5,2.8,10.6,5.3,16.6,7.3c10.1,4.7,19.9,11,28.1,18.4c6.8,6.1,12.8,12.9,22,14.8c9.8,2.1,20.9-7.7,13.9-17.1
				c-0.3-0.3-0.9-0.2-0.7,0.3c-4.1,10.6-9.6,13.5-16.4,8.7c-1.8-1.4-3.6-2.7-5.3-4.1c-1.9-1.7-3.7-3.5-5.6-5.2c-3-2.7-6-5.4-9.3-7.7
				c-1.4-1-2.8-1.9-4.2-2.8c15.7,2.1,31.7,0.7,43.7-6.3c0.5-0.3,1.1-0.7,1.6-1c9.4-2.8,20.6,6.3,29.2-0.3c4.2-3.2,7.1-9,2.2-13
				c-0.4-0.3-1.1,0-0.9,0.5c5.3,14.2-15.7,7.6-21.6,6.4c-0.2,0-0.5-0.1-0.7-0.1c5.5-5.2,10.1-11.2,14.3-17.5
				c8.1-11.9,16.3-22.8,26.6-32.9C1266.3,695.2,1266,694.6,1265.7,694.8z M1112.4,751.6c-4.7-2.7-9.4-5.4-14.2-7.8
				c4.8-3.6,9.8-7.3,14.2-11.3c4.5,4.1,9.4,7.7,14.2,11.3C1121.8,746.2,1117.1,748.9,1112.4,751.6z"/>
			<path fill="#FFFFFF" d="M1112.4,762.3c-5.3,5.9-11.5,10.3-17.2,15.8c-3.6,3.5-3.4,8.2-1.9,12.5c2.9,8.3,8.4,16.8,12.8,24.4
				c1.6,2.8,3.8,4.2,6.3,4.4c2.5-0.2,4.7-1.6,6.3-4.4c4.4-7.6,9.9-16.1,12.8-24.4c1.5-4.3,1.7-9.1-1.9-12.5
				C1123.9,772.6,1117.8,768.2,1112.4,762.3z M1121.6,798.5c-1.4,2.6-4.9,12-9.2,14.3c-4.3-2.2-7.8-11.7-9.2-14.3
				c-4.2-8-6.7-15.4,1.8-21.9c3-2.3,5.4-4.9,7.3-8c1.9,3,4.3,5.7,7.3,8C1128.3,783.1,1125.8,790.6,1121.6,798.5z"/>
			<path fill="#FFFFFF" d="M1141.4,594.8c0.1,0,0.2,0,0.3,0c2.4-0.2,4.4-1.8,4.4-4.4c0-2.6-2-4.2-4.4-4.4c-0.1,0-0.2,0-0.3,0
				c-2.4-0.2-4.4,2.2-4.4,4.4S1139,595,1141.4,594.8z"/>
			<path fill="#FFFFFF" d="M1127.6,579.1c2.5,0,5.1-2.2,4.8-4.8c0-0.1,0-0.2,0-0.3c-0.2-2.6-2-4.8-4.8-4.8s-4.6,2.2-4.8,4.8
				c0,0.1,0,0.2,0,0.3C1122.5,576.9,1125.1,579.1,1127.6,579.1z"/>
			<path fill="#FFFFFF" d="M1131.3,581.3c0.2-0.2-0.1-0.6-0.4-0.5c-4.8,2.5-10.3-0.1-10.5-5.8c0-1.4-2-1.4-2.1,0
				C1117.9,581.9,1126.3,586.4,1131.3,581.3z"/>
			<path fill="#FFFFFF" d="M1143.3,597.6c0.4-0.2,0.2-0.7-0.2-0.8c-2.1-0.1-4.1-0.4-5.8-1.7c-1.7-1.2-2.3-2.7-3.1-4.5
				c-0.4-0.9-1.9-0.5-1.9,0.5C1132.6,596,1139,599.7,1143.3,597.6z"/>
			<path fill="#FFFFFF" d="M1129.4,599.3c-5.5,2.8-10.2,6.1-13.3,11.6c-1.6,2.7-2.5,6.1-3.7,9.4c-1.2-3.3-2.1-6.7-3.7-9.4
				c-3.2-5.5-7.8-8.8-13.3-11.6c-0.5-0.3-1.1,0.4-0.6,0.8c5.6,5.8,9.5,13.4,11.6,21.1c1.3,4.8,2.6,9.5,6,12.7c3.4-3.2,4.7-8,6-12.7
				c2.1-7.7,6-15.3,11.6-21.1C1130.5,599.6,1129.9,599,1129.4,599.3z"/>
			<path fill="#FFFFFF" d="M1274.5,656.4c-27.6-12.5-52.7,2-77,15.1c8.8-11.1,13-23.6,4.3-34.8c-0.1-0.2-0.4,0-0.4,0.2
				c6.4,28.2-25.1,42.6-40.3,61.6c-2.8,2.4-5.5,4.9-8,7.6c-3.3,3.6-6.6,7.4-9.7,11.2c-1.6,1.9-3.1,3.8-4.7,5.7
				c-0.3,0.5-0.6,0.9-0.9,1.3c-1.7-4-8.5-5.3-11.3,0.6c-1.8,3.9,1.3,7,4.4,8.8c3.9,2.2,8.4-1.3,10.9-3.8
				c7.5-7.6,12.4-17.5,20.5-24.9c8.6-7.9,18.8-15.2,30.3-17.9c17.3-4.2,35.3-2.7,49.3-15.5c0.1-0.1,0-0.2-0.1-0.2
				c-14,8.2-30.6,7.1-46.3,9.8c14.3-8,28.4-17.3,44.3-21c1.9-0.4,3.8-0.8,5.8-1.1c4.5,0.4,9,1.4,12.8,3.9c2.6,1.7,5.5,4.3,5.4,7.8
				c-0.1,3.7-3.4,6.4-7,5.1c-0.4-0.1-0.6,0.4-0.4,0.7c5.8,6.5,14.1-2.2,11.7-9.1c-1.3-3.6-3.8-6.5-7-8.6c3.5,0.5,6.9,1.5,10,3.2
				c3.5,1.8,7.1,3.8,9.6,7c5.4,6.9,6.9,24.9-9.8,19.9c-0.6-0.2-1.1,0.6-0.6,1.1c6.4,6,17.7,3.6,19.7-5.8
				C1292.6,672.2,1285.3,661.3,1274.5,656.4z"/>
		</g>
		<g>
			<path fill="#FFFFFF" d="M569.5,346.2c22,11.4,48.2,10.9,71.7,5.4c0.9-0.2,1.5-0.7,1.8-1.4c0.5-0.5,0.8-1.2,0.6-2.1
				c-3-21-20.4-37-39.4-44.4c-26.2-10.1-57.7,11.6-80.6-7.8c-0.7-0.6-1.6,0.3-1,1c0.1,0.1,0.2,0.2,0.3,0.3
				C532.7,317.2,549.8,336,569.5,346.2z M578.2,307.1c27.6-2.5,49.9,14.6,59.8,39.2c-23,4.7-47.5,4.2-68.9-6.4
				c-16.1-8-26.4-22.4-37.9-35.5C544.8,312,563,308.5,578.2,307.1z"/>
			<path fill="#FFFFFF" d="M564.1,351.4c13.4,7.1,28.5,10.7,43.6,11.3c14.6,0.5,30.8-1.9,42.3-11.6c0.2-0.2,0.3-0.4,0.4-0.6
				c0.4-0.3,0.7-0.8,0.6-1.5c-5.4-25-21.3-47.2-46.7-54.4c-27.7-7.9-67,19-88-9.3c-0.2-0.3-0.7,0-0.5,0.3c0,0.1,0.1,0.1,0.1,0.1
				C519.7,313.7,539.6,338.4,564.1,351.4z M586.4,295.7c32.3-2.5,55.2,24.6,61.7,53.7c-11.7,9.3-27.9,11-42.3,10.5
				c-14.7-0.5-29.1-4.8-42-11.7c-24.2-12.9-37.8-35.4-46.7-60.3C531.8,310.2,565.1,297.3,586.4,295.7z"/>
			<path fill="#FFFFFF" d="M677.1,379.9c5.1-2.3,8.5-7.4,8.1-13.2c-0.4-4.5-3.7-9.1-8.1-10.1c-4.4,1-7.7,5.6-8.1,10.1
				C668.6,372.5,672,377.6,677.1,379.9z M674.4,366.3c0.3-2,1.4-3.5,2.7-4.8c1.3,1.3,2.4,2.8,2.7,4.8c0.4,2.8-0.7,5.3-2.7,7
				C675.1,371.7,673.9,369.2,674.4,366.3z"/>
			<path fill="#FFFFFF" d="M600.3,376.4c-5.8-0.3-10.8,3.1-11.9,8.9c-1.1,5.3,4.3,9.7,9.1,9.3c1-0.1,1-1.5,0-1.5
				c-5.2,0.1-8.9-4.5-6.5-9.8c1.3-3,4.9-4.1,7.8-4.2c6.3-0.2,10.4,6.4,11,11.8c1.2,10.9-9.6,17.5-19.3,15.5
				c-10.9-2.3-13.2-14.2-11.3-23.4c1.4-6.6,2.9-12.4-0.1-18.7c-4.4-9.6-18.8-9.6-22.2,0.6c-3,8.9,8.8,15.4,14.5,8
				c0.2-0.3-0.1-0.7-0.4-0.4c-6.9,7.2-16.3-3-10.3-10.4c5.7-7,15.1,0,17.1,6.3c1.6,5-0.7,10.8-1.8,15.7c-0.8,3.7-0.9,7.4,0,11.1
				c3.2,14.3,20.8,18.8,31.4,9.7C616.2,397.2,613.8,377,600.3,376.4z"/>
			<path fill="#FFFFFF" d="M632.3,367.7c4,1.8,5.2,6.6,4.3,10.5c-1.9,8.4-15.7,5.6-12.3-3.1c0.2-0.5-0.6-0.7-0.8-0.3
				c-2.4,3.8-0.1,10,4.7,10.6c6.5,0.9,12.3-5.2,11.1-11.8c-1.7-8.5-9.2-11.1-16.8-8.6c-6.1,2-10.8,4.4-17.4,4.7
				c-6.4,0.3-12.8-1.5-18.4-4.5c-0.4-0.2-0.8,0.4-0.4,0.7c8,5.3,16.8,7.1,26.2,5.5C619.1,370.1,625.4,364.5,632.3,367.7z"/>
			<path fill="#FFFFFF" d="M521.8,318.9c-0.4-0.4-0.9,0.2-0.6,0.6c6.4,8,12.9,15.8,19.5,23.6c3.6,4.2,14.5,13.3,6.6,18.8
				c-3.2,2.2-7.8,1.5-11-0.1c-6.6-3.3-3.1-13.8,4.2-11.6c0.6,0.2,1-0.7,0.4-1c-5.7-3-10.7,1.8-10.4,7.6c0.4,7.9,10.3,10,16.4,7.9
				c7.2-2.5,6.4-10.2,2.3-15.1C540.5,339,531.2,328.9,521.8,318.9z"/>
			<path fill="#FFFFFF" d="M599.7,258.4c8.8,7.3,19.1,13.2,28.7,19.5c7.2,4.8,14.7,10.6,23,13.3c2.1,1,4.3,1.6,6.5,2.3
				c10.2,3.1,15.4,7.5,18.7,17.8c0.1,0.4,0.3,0.7,0.5,1c0.2-0.3,0.4-0.6,0.5-1c3.3-10.3,8.5-14.7,18.7-17.8c2.1-0.6,4.4-1.3,6.5-2.3
				c8.4-2.7,15.8-8.6,23-13.3c9.6-6.3,19.8-12.2,28.7-19.5c5.9-4.8,13.2-12.6,12-21c-0.8-6.1-6.4-11.1-12.2-7.1
				c-0.3,0.2,0,0.7,0.3,0.5c7.1-3.1,10.6,5.8,8.7,11.3c-1.4,4.1-3.8,7.7-6.9,10.6c-5.3,5-11.5,8.9-17.6,12.9
				c-9.1,6-18.3,13.3-28.2,18.6c1.8-3.2,2.5-6.8,1.9-10.5c14.8-5.8,31-13.3,35.9-29.8c0.1-0.3-0.4-0.6-0.6-0.3
				c-6.7,15.1-21.5,21.6-36.1,27.1c-0.3-0.7-0.6-1.4-0.9-2.1c-3.8-6.9-10.5-14.3-19-14.5c-4.2-0.1-8.8,0.7-12.1,3
				c-0.8,0.4-1.6,0.9-2.4,1.5c-0.7-0.6-1.5-1.1-2.4-1.5c-3.3-2.3-7.8-3.1-12.1-3c-8.6,0.3-15.3,7.6-19,14.5
				c-0.4,0.7-0.7,1.4-0.9,2.1c-14.6-5.5-29.4-12-36.1-27.1c-0.2-0.3-0.7-0.1-0.6,0.3c4.8,16.5,21,24,35.9,29.8
				c-0.7,3.7,0,7.3,1.9,10.5c-9.9-5.3-19.1-12.6-28.2-18.6c-6.1-4-12.3-7.9-17.6-12.9c-3.1-3-5.5-6.6-6.9-10.6
				c-1.9-5.5,1.6-14.4,8.7-11.3c0.4,0.2,0.6-0.3,0.3-0.5c-5.9-4-11.4,1-12.2,7.1C586.5,245.8,593.8,253.6,599.7,258.4z M652.8,268.2
				c6-7.3,13.3-5.9,20.6-3.5c1.5,1.4,2.3,3.5,1.9,5.7c-0.7,3.3-4.5,5.3-7.3,6.4c-0.6,0.2-0.4,1,0,1.3c3.1,2.2,6.4,1.5,9.1-0.4
				c2.7,1.9,6,2.6,9.1,0.4c0.4-0.3,0.6-1,0-1.3c-2.8-1.2-6.6-3.2-7.3-6.4c-0.5-2.2,0.3-4.3,1.9-5.7c7.3-2.4,14.6-3.8,20.6,3.5
				c4.9,6,5.3,15.1-3.5,17.4c-3.5,0.9-6.9,1.8-10.3,2.9c-4.2,1.4-7.7,4.1-10.4,7.5c-2.7-3.4-6.2-6.1-10.4-7.5
				c-3.4-1.2-6.8-2-10.3-2.9C647.5,283.3,647.9,274.1,652.8,268.2z"/>
			<path fill="#FFFFFF" d="M664.1,239.7c4.3,3.3,8.6,6.4,13,9.6c4.4-3.1,8.7-6.3,13-9.6c3.9-3,2.5-8.2,2.9-12.5
				c0.8-8.2,3.7-17.6,11.3-22c7.3-4.2,17.3-3.5,21.5,4.8c0.1,0.2,0.3,0.2,0.5,0.1c0.1,0,0.2-0.1,0.2-0.2c1.4-8.7-5.5-14.8-13.5-16
				c-8.6-1.3-16.4,4-22,10.2c0.5-4.8,1.1-9.6,1.7-14.4c0.4-3.6,0.5-6.8-1.5-9.9c-1.9-3.1-6-4.3-9-5.8c-1.8-0.9-3.5-1.9-4.9-3.1
				c-1.5,1.2-3.1,2.2-4.9,3.1c-3,1.5-7.1,2.7-9,5.8c-2,3.2-1.9,6.3-1.5,9.9c0.5,4.8,1.1,9.6,1.7,14.4c-5.6-6.2-13.4-11.6-22-10.2
				c-8,1.2-14.9,7.3-13.5,16c0,0.1,0.1,0.2,0.2,0.2c0.1,0.1,0.4,0.1,0.5-0.1c4.2-8.2,14.2-9,21.5-4.8c7.6,4.4,10.5,13.8,11.3,22
				C661.7,231.6,660.2,236.7,664.1,239.7z M628.5,208.6c0.9-9.2,9.6-13.6,18.4-12c7.3,1.3,12.8,7.2,17.3,12.7
				c0.9,1.2,2.3-0.2,2.2-1.3c-0.7-5.4-1.4-10.8-2-16.2c-0.3-2.8-0.7-5.5-0.3-8.3c0.5-3.3,4-4.9,6.6-6.1c2.2-1,4.4-2.2,6.4-3.5
				c2,1.3,4.2,2.4,6.4,3.5c2.6,1.3,6.1,2.8,6.6,6.1c0.5,2.8,0.1,5.5-0.3,8.3c-0.6,5.4-1.3,10.8-2,16.2c-0.2,1.1,1.3,2.4,2.2,1.3
				c4.5-5.5,9.9-11.4,17.3-12.7c8.8-1.6,17.5,2.8,18.4,12c-5.9-10.4-20.3-9.8-27.8-0.9c-4.6,5.6-6.9,12.3-7.5,19.5
				c-0.2,3.4,0.5,8.6-2.8,11c-1.7,1.2-3.3,2.4-5,3.5c-1.9,1.3-3.8,2.7-5.6,4c-1.9-1.3-3.8-2.7-5.6-4c-1.7-1.2-3.3-2.4-5-3.5
				c-3.3-2.3-2.5-7.6-2.8-11c-0.5-7.2-2.8-14-7.5-19.5C648.8,198.8,634.4,198.2,628.5,208.6z"/>
			<path fill="#FFFFFF" d="M830.5,295.9c-22.9,19.4-54.5-2.3-80.6,7.8c-19,7.3-36.4,23.3-39.4,44.4c-0.1,0.9,0.2,1.6,0.6,2.1
				c0.3,0.6,0.9,1.2,1.8,1.4c23.5,5.4,49.7,6,71.7-5.4c19.7-10.2,36.8-29,46.6-48.8c0.1-0.1,0.2-0.2,0.3-0.3
				C832.2,296.3,831.3,295.3,830.5,295.9z M785.1,339.9c-21.4,10.6-45.9,11.1-68.9,6.4c9.9-24.5,32.2-41.7,59.8-39.2
				c15.1,1.4,33.3,4.9,46.9-2.7C811.4,317.5,801.2,331.9,785.1,339.9z"/>
			<path fill="#FFFFFF" d="M849.8,216.1c-0.3-0.9-1.6-0.8-1.8,0c-0.4,0-0.8,0.3-0.8,0.8c0.3,4.8-0.6,9.9-3.5,13.8
				c-3.8,5-8.8,6.4-14.4,8.6c-3.7,1.5-6.1,3.1-7.8,5.4c-2.4-11.1-18-17.7-26.2-9.6c3.2-18.8-20.4-27.6-36.6-21
				c-11.6,4.7-17.6,15.5-25.5,24.4c-6.5,7.4-16.8,15.7-27,9c-0.7-0.5-1.4-1-2-1.5c-4.1-5.3-6.7-11.9-4.8-18.7
				c1.2-4.3,3.4-8.7,7.8-10.7c2.1-1.1,4.4-1.6,6.8-1.6c5.4-0.2,6.8,2.6,4.2,8.3c-0.1,0-0.3,0-0.4-0.1c-1.3-0.3-2.1,1.4-0.9,2.2
				c6.8,4.5,15.9-0.1,18.9-7.2c3-7,3.4-15-0.4-21.8c-4-7.3-10.9-12.8-19.5-13c-4.3-0.1-9.1,0.7-12.9,2.9c2.4-6.1,1.3-13.2-2.4-18.9
				c-2.8-4.4-8-6.5-12.3-9c-5.8-3.3-8.8-7-11.3-11.9c-2.6,4.9-5.5,8.6-11.3,11.9c-4.4,2.5-9.5,4.5-12.3,9
				c-3.7,5.8-4.7,12.8-2.4,18.9c-3.9-2.2-8.6-3-12.9-2.9c-8.6,0.3-15.5,5.7-19.5,13c-3.7,6.8-3.3,14.9-0.4,21.8
				c3,7.1,12.2,11.7,18.9,7.2c1.1-0.8,0.4-2.4-0.9-2.2c-0.1,0-0.3,0-0.4,0.1c-2.6-5.7-1.2-8.5,4.2-8.3c2.4-0.1,4.6,0.5,6.8,1.6
				c4.4,2,6.6,6.3,7.8,10.7c1.9,6.7-0.7,13.4-4.8,18.7c-0.6,0.5-1.3,1.1-2,1.5c-10.2,6.7-20.5-1.6-27-9
				c-7.9-8.9-13.9-19.7-25.5-24.4c-16.2-6.6-39.8,2.1-36.6,21c-8.2-8.1-23.8-1.6-26.2,9.6c-1.7-2.3-4-3.9-7.8-5.4
				c-5.5-2.3-10.6-3.6-14.4-8.6c-3-3.9-3.9-9.1-3.5-13.8c0-0.5-0.4-0.8-0.8-0.8c-0.2-0.9-1.5-1-1.8,0c-9.6,32.1,0.7,69.6,6.7,101.5
				c3.9,20.6,4.5,64.2,33.8,65.1c0.5,0,1-0.1,1.3-0.2c4.6,15.3,17.1,28.3,30.6,36c13.4,7.6,37.8,6,42.8-11c3.6,2.7,8.9,3.7,14,3
				c4.7-0.7,9.3-1.7,14.1-2.3c9.6-1.1,15.5,6.4,20.5,13.1c4,5.4,6.8,11.5,9,17.7c2.2-6.3,5-12.3,9-17.7c4.9-6.7,10.9-14.2,20.5-13.1
				c4.7,0.5,9.4,1.6,14.1,2.3c5.1,0.8,10.4-0.2,14-3c5,16.9,29.4,18.6,42.8,11c13.5-7.7,26-20.8,30.6-36c0.4,0.2,0.8,0.3,1.3,0.2
				c29.3-0.9,29.9-44.4,33.8-65.1C849.2,285.7,859.5,248.2,849.8,216.1z M847.1,260.1c-1.8,14.4-4.6,28.6-7.5,42.8
				c-2.6,13.1-5.3,26.2-7.8,39.3c-2.6,13.7-5.2,32.9-22.5,34.8c0,0,0,0,0,0c0.4-2.1,0.6-4.3,0.6-6.5c0-0.3-0.4-0.4-0.5-0.1
				c-7.1,12.6-13.1,26.1-24.5,35.6c-15.3,12.8-35.1,16.3-46.3-3.1c0-0.1-0.1-0.1-0.1-0.2c0.6-1.5,0.9-3.2,0.9-5.1
				c0-0.6-0.9-0.9-1.1-0.3c-8.3,16.7-34.3-2-47.7,9.6c-5.3,4.5-9.7,9.9-13.3,15.8c-3.6-5.9-8.1-11.3-13.3-15.8
				c-13.4-11.5-39.5,7.2-47.7-9.6c-0.3-0.6-1.1-0.3-1.1,0.3c0,1.9,0.3,3.6,0.9,5.1c0,0.1-0.1,0.1-0.1,0.2
				c-11.2,19.4-31,15.9-46.3,3.1c-11.4-9.5-17.5-23-24.5-35.6c-0.1-0.3-0.5-0.1-0.5,0.1c0,2.2,0.3,4.4,0.6,6.5c0,0,0,0,0,0
				c-17.3-1.9-19.9-21.1-22.5-34.8c-2.5-13.1-5.2-26.2-7.8-39.3c-2.8-14.2-5.7-28.4-7.5-42.8c-1.3-10.6-1.3-21-1.1-31.5
				c0.9,2.6,2.3,5,4.2,7.3c2.7,3.4,6.9,5.5,10.7,7.3c3.4,1.6,9.2,4,11.7,7.6c0.1,0.5,0.2,0.9,0.4,1.4c0.1,0.4,0.5,0.7,0.8,0.8
				c0.7,0.8,2.2,0.3,1.9-1c-0.1-0.3-0.2-0.6-0.3-0.9c0.2-6.5,3-12.3,9.6-14.5c5.3-1.8,10.9,0.5,15.3,3.6c0.5,1.3,2.3,0.8,2.1-0.6
				c-2.6-13.3,7.3-22.2,19.7-22.9c9.2-0.5,17.6,5.7,23.7,11.9c8.6,8.6,13.5,19.1,24.7,24.8c7.3,3.7,13.5,3.1,18.3-0.1
				c0.1-0.1,0.2-0.1,0.2-0.2c0,0,0,0,0.1-0.1c4-2.8,6.9-7.5,8.5-12.8c4.4-11.7,2-25-12.7-29.4c-5-1.5-15,0.3-16.4,6.5
				c-0.5,2.1-0.2,4.2,0.7,5.9c-10.9-3-10.3-20.5-3.3-28.7c8.4-9.9,20.4-5.5,30.1-1.2c0.6,0.3,1.1-0.2,1.1-0.8
				c0.5-0.3,0.8-0.9,0.5-1.5c-2.5-6.5-2.8-11.7,0.1-18.2c2.6-5.7,9.5-7.7,14.1-11.3c2-1.6,3.9-3.4,5.4-5.4c1.6,2,3.4,3.8,5.4,5.4
				c4.6,3.6,11.5,5.6,14.1,11.3c2.9,6.5,2.6,11.7,0.1,18.2c-0.2,0.6,0,1.2,0.5,1.5c-0.1,0.6,0.5,1,1.1,0.8
				c9.7-4.3,21.6-8.7,30.1,1.2c7,8.2,7.6,25.7-3.3,28.7c0.9-1.7,1.2-3.8,0.7-5.9c-1.4-6.2-11.4-8-16.4-6.5
				c-14.7,4.4-17.1,17.7-12.7,29.4c1.6,5.3,4.5,9.9,8.5,12.8c0,0,0,0,0.1,0.1c0.1,0.1,0.2,0.1,0.2,0.2c4.7,3.2,10.9,3.8,18.3,0.1
				c11.2-5.7,16.1-16.2,24.7-24.8c6.1-6.1,14.5-12.3,23.7-11.9c12.5,0.6,22.4,9.6,19.7,22.9c-0.3,1.4,1.6,1.9,2.1,0.6
				c4.3-3.1,9.9-5.4,15.3-3.6c6.6,2.2,9.3,8,9.6,14.5c-0.1,0.3-0.2,0.6-0.3,0.9c-0.3,1.2,1.2,1.8,1.9,1c0.4-0.1,0.7-0.4,0.8-0.8
				c0.1-0.5,0.3-0.9,0.4-1.4c2.5-3.5,8.3-5.9,11.7-7.6c3.8-1.8,8-4,10.7-7.3c1.9-2.3,3.3-4.8,4.2-7.3
				C848.4,239,848.4,249.5,847.1,260.1z"/>
			<path fill="#FFFFFF" d="M842.4,250.2c-3.9,8.9-7.9,19.5-15.4,26.1c-1.7,1.5-3.5,2.8-5.3,3.9c2.1-2.2,3.9-4.7,5.4-7.7
				c2.6-5.3,6-15.1-2.3-17c-8.4-1.9-13.5,12.6-17.5,17.2c-7.5,8.5-17.4,12.1-28.4,12.4c-1.5-0.1-3.1-0.2-4.7-0.3
				c7.7-1.9,15.3-4.7,21.7-8.6c8.5-5.1,21.1-15.4,13-26.3c-6.8-9-19.7-2.8-24.1,5c-3.8,6.6-5.9,14-11.5,19.5
				c-5.2,5.2-11.7,9-18.9,10.8c-4.4,0.6-8.6,1.7-12.7,3.5c-25.6,11.4-43.5,32.8-48.5,59.6c-0.3-5.3-0.3-10.6,1.1-15.5
				c2.5-9.4,7.6-17.4,14.7-24c15.2-14.3,35.4-21.2,51-34.7c10.1-8.8,21.1-21.4,21.1-35.5c0-0.6-0.9-0.9-1.1-0.3
				c-9.1,19.6-22,30.5-40.9,40.8c-15.8,8.7-31.9,16.9-43.4,31.2c-10.5,13.2-11,28.1-9.8,44.2c0.7,10.4,1.3,21.1-4.2,30.5
				c-1.4,2.4-3,4.7-4.6,6.9c-1.6-2.2-3.2-4.5-4.6-6.9c-5.4-9.4-4.9-20.1-4.2-30.5c1.1-16.1,0.7-31-9.8-44.2
				c-11.4-14.3-27.6-22.6-43.4-31.2c-18.9-10.4-31.8-21.2-40.9-40.8c-0.3-0.6-1.1-0.3-1.1,0.3c0,14.1,11,26.8,21.1,35.5
				c15.6,13.6,35.8,20.5,51,34.7c7.1,6.6,12.1,14.6,14.7,24c1.3,4.9,1.4,10.2,1.1,15.5c-5-26.8-22.9-48.2-48.5-59.6
				c-4.1-1.8-8.3-2.9-12.7-3.5c-7.1-1.8-13.6-5.6-18.9-10.8c-5.6-5.5-7.7-12.8-11.5-19.5c-4.5-7.8-17.3-14-24.1-5
				c-8.2,10.8,4.5,21.2,13,26.3c6.5,3.9,14,6.7,21.7,8.6c-1.6,0.1-3.1,0.2-4.7,0.3c-11-0.4-20.9-3.9-28.4-12.4
				c-4-4.5-9.2-19-17.5-17.2c-8.3,1.9-4.9,11.7-2.3,17c1.4,2.9,3.2,5.5,5.4,7.7c-1.8-1.1-3.6-2.4-5.3-3.9
				c-7.5-6.5-11.5-17.2-15.4-26.1c-0.1-0.3-0.6-0.1-0.5,0.2c3.5,11.7,8.5,25.6,18.8,33.2c14.2,10.5,31.2,8.1,47.8,6.3
				c20.2-2.2,41.3,2.6,56.1,17.1c14.6,14.4,20.9,33.7,23.8,53.5c-5.9,2.8-9.7,7.7-12.7,13.9c-2.1,4.4-3.7,8.9-6.3,13.1
				c-2.6,4.3-6.6,7.1-11.6,7.5c-9.2,0.8-8.5-8.9-7.3-13.7c0.1-0.2-0.2-0.4-0.4-0.2c-7,8.9-0.8,18.5,9.9,18.4c1.5,0,2.9-0.2,4.2-0.6
				c0.9,0,1.8-0.1,2.8-0.3c6.9-1,12.8-2,19.6,0.3c9.6,3.2,15.9,11.4,21,20c5.2-8.5,11.5-16.7,21-20c6.7-2.3,12.7-1.3,19.6-0.3
				c1,0.1,1.9,0.2,2.8,0.3c1.3,0.4,2.7,0.6,4.2,0.6c10.7,0,17-9.5,9.9-18.4c-0.2-0.2-0.5,0-0.4,0.2c1.2,4.7,1.9,14.4-7.3,13.7
				c-5-0.4-9-3.2-11.6-7.5c-2.5-4.2-4.1-8.7-6.3-13.1c-3-6.1-6.8-11.1-12.7-13.9c2.9-19.8,9.2-39.1,23.8-53.5
				c14.8-14.6,35.9-19.3,56.1-17.1c16.6,1.8,33.6,4.3,47.8-6.3c10.3-7.6,15.2-21.4,18.8-33.2C843,250.1,842.5,249.9,842.4,250.2z
				 M561.6,286.2c-7.6,0.4-15-0.2-21.9-2.6c-4.4-3.2-8-7.5-10.6-12.2c-1-1.8-1.6-3.7-2.2-5.7c-1.5-4,0.6-6.3,6.4-7
				c1.1,0.7,2.1,1.6,3,2.7c3.1,3.4,5.2,7.7,7.9,11.4c4.8,6.6,12.3,11.4,20.3,13.2C563.6,286.1,562.6,286.1,561.6,286.2z
				 M567.8,277.9c-6.1-2.4-11.8-5.9-16.8-10.2c-7.1-6.3-7.7-18.7,4.1-19.4c12.5-0.8,16,17.5,22.1,25.2c1.1,1.3,2.2,2.5,3.5,3.6
				c-4.2-3.5-7.8-7.6-10.9-12.3c-1.8-2.8-7.2-14.7-12.8-9.4c-5.1,4.9,1.7,12.7,5.2,16.4c3.3,3.4,7.4,6.1,11.8,8.2
				C572,279.4,569.9,278.7,567.8,277.9z M568.8,274.7c-3.8-2.4-6.9-5.7-9.4-9.4c-0.3-0.5-0.6-1-0.9-1.5c-2.8-3.9-0.8-5.2,6-4
				c1,1.4,1.7,3.1,2.6,4.6c4,7,9.7,12.9,16.5,17.2C578.5,279.7,573.5,277.7,568.8,274.7z M590,283.6c-1.6-0.9-3.1-1.9-4.6-2.9
				c2.1,1.3,4.4,2.4,6.7,3.3C591.5,283.9,590.8,283.7,590,283.6z M661.7,399.1c-4.2-2.6-9.1-3.8-14-4.1c-2.9-0.1-5.7,0.3-8.5,0.7
				c7-6.3,9.2-19.2,15.4-26.7c0.2,11.9,4.9,23.7,12,33.7C665.1,401.5,663.5,400.2,661.7,399.1z M677.1,414.7
				c-0.1-0.1-0.2-0.3-0.3-0.4c0.1,0.1,0.2,0.2,0.3,0.2c0.1-0.1,0.2-0.2,0.3-0.2C677.3,414.4,677.2,414.5,677.1,414.7z M714.9,395.7
				c-2.8-0.5-5.6-0.9-8.5-0.7c-4.9,0.2-9.7,1.5-14,4.1c-1.8,1.1-3.4,2.4-5,3.7c7.1-10,11.8-21.8,12-33.7
				C705.7,376.5,708,389.4,714.9,395.7z M698.4,367.9c-1.8,9.5-4,18.6-8.8,27.2c-3.5,6.1-7.6,11.4-12.5,16.2
				c-4.9-4.8-9-10.1-12.5-16.2c-4.9-8.5-7.1-17.7-8.8-27.2c1.2-1.2,2.5-2.2,3.9-2.9c0,0.3,0,0.6,0,0.9c-0.3,15,7.2,28.9,17.5,39.4
				c10.3-10.6,17.8-24.5,17.5-39.4c0-0.3,0-0.6,0-0.9C696,365.7,697.3,366.7,698.4,367.9z M776.9,273.5c6.1-7.7,9.6-26,22.1-25.2
				c11.8,0.7,11.2,13.2,4.1,19.4c-4.9,4.3-10.7,7.8-16.8,10.2c-2.1,0.8-4.1,1.5-6.2,2.1c4.4-2.1,8.5-4.8,11.8-8.2
				c3.6-3.7,10.4-11.6,5.2-16.4c-5.6-5.3-11,6.6-12.8,9.4c-3,4.7-6.7,8.8-10.9,12.3C774.7,276,775.8,274.8,776.9,273.5z
				 M764.1,283.6c-0.7,0.1-1.5,0.3-2.2,0.4c2.4-0.9,4.6-1.9,6.7-3.3C767.2,281.7,765.7,282.7,764.1,283.6z M787.1,264.4
				c0.8-1.5,1.6-3.2,2.6-4.6c6.8-1.2,8.8,0.1,6,4c-0.3,0.5-0.6,1-0.9,1.5c-2.5,3.7-5.6,7-9.4,9.4c-4.7,3-9.7,5-14.9,6.9
				C777.3,277.3,783.1,271.5,787.1,264.4z M814.4,283.6c-6.8,2.4-14.2,3.1-21.9,2.6c-1-0.1-2-0.1-2.9-0.2
				c8.1-1.9,15.6-6.7,20.3-13.2c2.7-3.7,4.7-8.1,7.9-11.4c0.9-1,1.9-1.9,3-2.7c5.8,0.7,7.9,3,6.4,7c-0.6,2-1.2,3.9-2.2,5.7
				C822.5,276.1,818.8,280.4,814.4,283.6z"/>
			<path fill="#FFFFFF" d="M837.9,285.3c-21,28.3-60.3,1.4-88,9.3c-25.3,7.2-41.3,29.5-46.7,54.4c-0.1,0.7,0.2,1.2,0.6,1.5
				c0,0.2,0.1,0.4,0.4,0.6c11.4,9.7,27.7,12.1,42.3,11.6c15.1-0.5,30.2-4.1,43.6-11.3c24.4-13.1,44.4-37.8,48.3-65.7
				c0-0.1,0.1-0.1,0.1-0.1C838.7,285.2,838.2,284.9,837.9,285.3z M790.4,348.3c-12.9,6.9-27.3,11.2-42,11.7
				c-14.4,0.5-30.7-1.1-42.3-10.5c6.5-29.2,29.4-56.2,61.7-53.7c21.3,1.6,54.6,14.5,69.3-7.8C828.2,312.9,814.6,335.4,790.4,348.3z"
				/>
			<path fill="#FFFFFF" d="M775.1,364.1c-2.9,6.3-1.5,12.2-0.1,18.7c2,9.2-0.3,21.1-11.3,23.4c-9.6,2-20.5-4.6-19.3-15.5
				c0.6-5.4,4.7-12,11-11.8c3,0.1,6.5,1.2,7.8,4.2c2.3,5.3-1.3,10-6.5,9.8c-1,0-1,1.4,0,1.5c4.8,0.4,10.2-4,9.1-9.3
				c-1.2-5.8-6.2-9.2-11.9-8.9c-13.5,0.7-15.9,20.8-7.1,28.4c10.6,9,28.1,4.6,31.4-9.7c0.8-3.7,0.8-7.3,0-11.1
				c-1.1-4.9-3.4-10.7-1.8-15.7c2-6.3,11.4-13.4,17.1-6.3c6,7.4-3.4,17.6-10.3,10.4c-0.3-0.3-0.6,0.1-0.4,0.4
				c5.8,7.3,17.5,0.9,14.5-8C793.9,354.6,779.5,354.6,775.1,364.1z"/>
			<path fill="#FFFFFF" d="M768,365.8c0.4-0.3,0.1-0.9-0.4-0.7c-5.6,3-12,4.7-18.4,4.5c-6.6-0.3-11.3-2.7-17.4-4.7
				c-7.7-2.5-15.2,0.2-16.8,8.6c-1.3,6.6,4.6,12.7,11.1,11.8c4.8-0.6,7-6.8,4.7-10.6c-0.3-0.4-1-0.1-0.8,0.3
				c3.4,8.7-10.5,11.5-12.3,3.1c-0.9-3.9,0.3-8.7,4.3-10.5c6.9-3.1,13.2,2.4,19.9,3.6C751.2,372.8,760,371.1,768,365.8z"/>
			<path fill="#FFFFFF" d="M832.3,318.9c-9.3,10-18.7,20.1-27.5,30.6c-4.1,4.9-5,12.6,2.3,15.1c6.1,2.1,15.9,0,16.4-7.9
				c0.3-5.8-4.7-10.6-10.4-7.6c-0.6,0.3-0.2,1.2,0.4,1c7.3-2.2,10.7,8.3,4.2,11.6c-3.2,1.6-7.8,2.3-11,0.1
				c-7.9-5.5,3.1-14.6,6.6-18.8c6.6-7.8,13.1-15.6,19.5-23.6C833.2,319.1,832.7,318.5,832.3,318.9z"/>
			<path fill="#FFFFFF" d="M703,295.3c-7.6,0.7-13.4,5.2-18.1,11.1c-2.5,3.2-4.8,9.3-7.9,14c-3-4.8-5.3-10.8-7.9-14
				c-4.7-5.8-10.4-10.4-18.1-11.1c-0.4,0-0.5,0.6-0.1,0.7c11,3.3,17.1,12.1,22,21.9c1.2,2.4,2.5,5,4,7.1c1.6-2.2,2.9-4.8,4-7.1
				c4.9-9.8,11-18.6,22-21.9C703.5,295.9,703.5,295.3,703,295.3z"/>
			<path fill="#FFFFFF" d="M693.7,304.9c-4.2,3.9-7.6,8.6-10.2,13.7c-1.9,3.8-3.4,9.6-6.4,13.2c-3-3.6-4.5-9.4-6.4-13.2
				c-2.6-5.1-6-9.8-10.2-13.7c-0.2-0.2-0.6,0.1-0.4,0.3c4.8,7.4,8.9,14.6,12,22.9c1.1,2.9,2.7,5.6,5,7.5c2.3-1.8,3.9-4.6,5-7.5
				c3.1-8.3,7.2-15.5,12-22.9C694.3,305,693.9,304.7,693.7,304.9z"/>
			<path fill="#FFFFFF" d="M683.5,330c-1.1,4.7-2.8,9.6-6.4,12c-3.6-2.4-5.4-7.2-6.4-12c-0.1-0.4-0.8-0.3-0.7,0.1
				c0.5,4,1,7.9,3.3,11.2c1,1.4,2.3,2.5,3.8,3.2c1.5-0.8,2.8-1.8,3.8-3.2c2.4-3.4,2.9-7.2,3.3-11.2
				C684.3,329.7,683.6,329.6,683.5,330z"/>
			<path fill="#FFFFFF" d="M681.3,345c-0.9,2.1-2.4,3.7-4.2,4.5c-1.8-0.8-3.3-2.4-4.2-4.5c-0.2-0.4-0.7-0.1-0.7,0.3
				c0.4,2.9,2.4,5,4.9,6c2.5-1,4.5-3.1,4.9-6C682,344.9,681.5,344.6,681.3,345z"/>
		</g>
		<g>
			<path fill="#FFFFFF" d="M1056.5,295.2c14.2,8.7,24.8,25.4,32.8,39.5c0.6,1,2.3,0.3,1.8-0.8c-6.6-17.5-14.6-34.9-30.8-45.3
				c-16.7-10.7-41.2-2.8-57.7,4c-0.1,0.1-0.1,0.3,0.1,0.2C1021.6,288.8,1038.9,284.4,1056.5,295.2z"/>
			<path fill="#FFFFFF" d="M988.4,356.1c-0.2-0.2-0.5,0.1-0.4,0.3c0.6,2.8,1.1,5.7,1.6,8.6c-20.5-23.6-25.7-56.2-12.4-85.3
				c0,0,0,0,0,0c-16.9,29.2-12.1,66.6,11.9,90.3c-19.5-8-27.1-27-27.5-48.1c-0.4-20.3,9.3-38.4,15.7-57.1c0-0.1-0.2-0.3-0.3-0.1
				c-26.3,32.2-37.1,100,15.7,113c1.7,0.8,4.4-0.4,4.6-2.7C998,367.6,994.3,360.3,988.4,356.1z"/>
			<path fill="#FFFFFF" d="M1068.3,345.1c2.1,1.5,6.2-0.7,5.1-3.7c-5.3-13.9-14.9-27.4-29.2-33.2c-8-3.2-15.8-4.7-24.5-4.4
				c-12.5,0.5-23,9.1-35.7,3.8c-0.2-0.1-0.4,0.2-0.2,0.4c-0.1,0.1-0.1,0.2,0,0.3c8.3,9.5-1.9,21.3,3.7,31.1c3.5,6.1,10,8,16.5,6.4
				c0,1.5,0.1,2.9,0.4,4.3c-5.9-0.2-11.5-0.1-17.1-2.7c-6.4-2.9-8.9-9.2-9.4-15.7c-0.8-9.5,2.5-18.9-1.1-28.1c0-0.1-0.2-0.1-0.2,0.1
				c2.3,13-4.6,25.9,0.7,38.5c4.3,10.1,18.1,12.2,27.8,11c1.6,5.5,5,10.3,10,12.6c-2.6-0.3-5.1-1-7.4-2.4c-4.2-2.5-6.6-6.3-11.8-6.6
				c-0.4,0-0.4,0.6-0.1,0.7c4.3,1.4,6.9,5.2,10.2,8c2.1,1.8,4.9,2.6,7.5,3.2c5.6,1.2,10.4-0.4,15.2-2.8
				C1043.3,361.6,1052.2,346,1068.3,345.1z M1019.7,309.9c20.7-1.1,35.9,11.2,44.9,28.2c-4.9-0.2-9.4,1.3-14.3,3.7
				c-4.7,2.2-8.9,5.6-13.5,8.2c-11.4,6.4-24.1-1.6-22.6-14.2c0.2-1.3-1.4-2.4-2.6-2c-16.3,5.8-13.2-14.8-21.3-22
				C999.3,314.8,1010,310.5,1019.7,309.9z M1005.5,345.5c0.9-0.7,0.2-2.4-1-2c-6.5,1.9-13,0.4-15.7-6.5c-1.6-4.3-0.3-9.7,0.2-14.1
				c0.6-4.9,0.1-9.6-3-13.1c0.1,0.1,0.3,0.2,0.4,0.3c0,0.1,0,0.2,0,0.3c7,7.8,2,18.9,10.2,26.1c2.2,1.9,4.8,2.8,7.4,3
				c-1.6,0.3-3.3,0.5-5.2,0.1c-5.1-1-8.7-5.9-8.3-11c0-0.1-0.1-0.1-0.2,0c-4,11.9,11.1,16.8,19.8,11.8c0.9,7.5,5.1,15.5,13,17.1
				c2.9,0.6,5.7,0.5,8.3-0.1c-4.4,1.9-8.9,2.8-13.6,0.2c-4.6-2.4-7-7.9-9.1-12.4c-0.1-0.1-0.2,0-0.2,0.1c1.8,9.3,6.5,17.2,16.9,16.7
				c4.7-0.2,9.6-3.2,13.7-5.3c1-0.5,2-1.1,3-1.6c-6,4.8-12,9-20,9.4C1011.2,365.1,1007.6,354.2,1005.5,345.5z"/>
			<path fill="#FFFFFF" d="M971.3,264.2c8.4-3.7,12.5-15.9,3.5-21.8c-9.6-6.4-20.6,0.8-21.3,11.4c0,0,0,0.1,0,0.1
				c0,0.3-0.1,0.6-0.1,0.8c0,0.2,0.1,0.4,0.1,0.5C954.4,262.8,964.1,267.4,971.3,264.2z M956.6,251.3c1.4-3.6,4.3-6.4,7.8-7.4
				c2.5-0.3,5.2,0,7.7,0.8c7.3,3.6,4.6,12.8-1.2,16.2C963.5,265.2,955,259.6,956.6,251.3z"/>
			<path fill="#FFFFFF" d="M957.6,235.3c-1.3-3.1-6.5-4.8-9.3-5.9c-1.6-0.6-3.2-1.1-4.8-1.3c-2.5-0.5-5-0.6-7.3-0.1
				c-2.1,0.5-3.7,3.6-2.4,5.5c2.2,3.3,6,5.1,9.5,6.5C947,241.4,960.9,243.5,957.6,235.3z M953.3,237.9c-2.3,0.8-5.6-0.3-7.8-0.9
				c-2.1-0.6-3.9-1.6-5.7-2.6c-1.5-0.6-1.7-1.6-0.7-3.2c3.6,0.1,7.1,1.1,10.4,2.6C949.7,233.9,955.9,237,953.3,237.9z"/>
			<path fill="#FFFFFF" d="M994.6,282.7c10.3-8.5,9-27.3,4.9-38.6c-4.1-11.6-14.3-19.6-26.5-20.8c-0.7-0.1-0.9,1.2-0.2,1.3
				c0.7,0.1,1.4,0.3,2.1,0.5c6.5,5.8,12.2,12.3,15.5,20.5c4,10-0.7,16.5-6.3,24.1C978.6,277.3,985.5,290.2,994.6,282.7z
				 M985.6,274.1c0.6-1.5,1.5-3,2.5-4.3c5.8-8.3,8.3-14.8,4.7-24.8c-2.9-7.9-9.4-14.9-16.5-19.6c11,3.3,18.7,12.5,21.9,23.5
				c1.9,6.6,1.6,13.8,0.3,20.4c-0.7,3.6-2.1,7-4.6,9.8C986.6,280.4,983.9,278.7,985.6,274.1z"/>
			<path fill="#FFFFFF" d="M1310.9,220c-12.6-11.9-28.8-10-43-2.1c-16.1-6.9-38.8-0.6-48.2,14.5c-7.6,12.3-8.5,27.6-3.7,41
				c-3.4-4.1-6.9-8.1-11-11.1c-5.7-4.2-12.4-6.9-19.4-7.5c-3.7-6.6-12.3-8.1-19.8-6.9c-5.8-5.5-15.6-8-22.8-3.6
				c-9.3,5.7-15.8,22-25.3,29c0.3-4.9,5.5-8.9,7-13.6c1.3-4.1,1.8-8.5,0-12.6c-2.3-5.1-7.1-8.7-12.2-8.8c-5.1,0.1-9.9,3.7-12.2,8.8
				c-1.8,4-1.3,8.5,0,12.6c1.5,4.7,6.7,8.6,7,13.6c-9.5-7-16-23.3-25.3-29c-7.3-4.5-17-1.9-22.8,3.6c-7.5-1.2-16.1,0.2-19.8,6.9
				c-7,0.5-13.7,3.3-19.4,7.5c-4.1,3-7.5,7-11,11.1c4.8-13.4,4-28.6-3.7-41c-9.3-15.1-32.1-21.4-48.2-14.5
				c-14.2-7.8-30.4-9.8-43,2.1c-9,8.5-5.4,21.2,3.4,27.5c5.6,4,10.6,4.1,15.2,10.4c2.8,3.9,3.8,10.2,6.2,14.7
				c2.4,4.5,6.5,6.9,11.1,7.7c-11.5,25.8-19.1,52-7.2,79.3c7.3,16.6,24.3,31.4,42.3,32.6c-6.7,3.5-12.5,8.8-9,17
				c4.4,10.4,19.7,3.5,26.2,0.4c17.2-8.3,30.6-22.8,47.9-31.1c20.9-10,43.6-8.7,62.3,4.1c18.6-12.8,41.4-14.1,62.3-4.1
				c17.4,8.4,30.7,22.9,47.9,31.1c6.6,3.2,21.9,10,26.2-0.4c3.5-8.2-2.3-13.6-9-17c18-1.1,35-16,42.3-32.6
				c12-27.3,4.4-53.5-7.2-79.3c4.6-0.8,8.7-3.2,11.1-7.7c2.3-4.5,3.4-10.8,6.2-14.7c4.6-6.4,9.6-6.4,15.2-10.4
				C1316.2,241.2,1319.8,228.5,1310.9,220z M1104.8,258.6c-2.4-6.5,1-14.8,7.6-14.9c6.6,0.2,10,8.4,7.6,14.9
				c-1.2,3.3-3.6,5.9-4.7,9.1c-1,2.7-1.3,5.2-0.1,7.3c-0.9,0.5-1.8,0.8-2.7,1.1c-0.9-0.3-1.8-0.6-2.7-1.1c1.1-2.1,0.9-4.6-0.1-7.3
				C1108.4,264.4,1106.1,261.8,1104.8,258.6z M1112.4,282c20.6-4.5,23.9-45.7,50.1-33.4c-0.5,0.1-1,0.3-1.4,0.4
				c-20.5,6.7-26.2,37.1-48.6,38.3c-22.4-1.2-28.1-31.6-48.6-38.3c-0.5-0.2-1-0.3-1.4-0.4C1088.6,236.4,1091.8,277.5,1112.4,282z
				 M1088.7,278.6c6.6,7.6,14.4,12.9,23.7,14c9.3-1,17.2-6.3,23.7-14c12-14,27.3-36,46.1-23.8c-2.4,0.1-4.9,0.4-7.3,1.1
				c-10.6,3.1-19.9,8.9-27.4,17.1c-10.4,11.5-19.1,26.6-35.1,29.8c-16-3.3-24.7-18.4-35.1-29.8c-7.5-8.2-16.8-14-27.4-17.1
				c-2.4-0.7-4.9-1.1-7.3-1.1C1061.4,242.6,1076.7,264.6,1088.7,278.6z M1048.5,261.3c28,4.9,35.9,41.2,64,46.1
				c28-5,36-41.3,64-46.1c15.8-2.7,23.7,4.3,32,12.7c-10.8-8.1-22.1-14.5-36.3-7.9c-22.6,10.6-33.5,41.4-59.7,44.3
				c-26.2-2.9-37.1-33.8-59.7-44.3c-14.2-6.7-25.6-0.3-36.3,7.9C1024.8,265.6,1032.7,258.5,1048.5,261.3z M1112.4,340.4
				c-8.8-8.4-19.2-14.8-11.8-29.6c3.6,1.7,7.5,2.7,11.8,2.9c4.3-0.2,8.2-1.3,11.8-2.9C1131.6,325.6,1121.2,332,1112.4,340.4z
				 M1064.3,366.7c-13.4,2.5-25.7,9.8-36.6,17.5c-6,4.2-11.7,8.8-17.6,13.1c-3.5,2.5-7.3,4.7-11.1,6.8c-2.4,1-4.8,2.1-7.2,3.1
				c-8.2,3.1-9-0.5-2.7-11c1.3-1.1,2.6-2,3.5-2.7c1.4-1,2.9-1.8,4.4-2.6c2.4-0.7,4.7-1.8,7.1-3.1c1.3-0.7,0.4-2.7-1-2.3
				c-27.1,7.1-48.9-11.3-57.9-35.8c-8.9-24.2,1.5-48.2,10.8-70.4c0.3-0.8,0.1-1.5-0.3-2c-0.1-1.6-1.2-3.2-3.3-3.3
				c-11.9-0.5-9.7-17-17-23.2c-2.8-2.4-5.5-4.1-8.9-5.8c-11.2-5.5-14.2-19.2,0-24.7c17.5-6.9,38.5,4.8,51.2,18.8
				c-6.5-6-14.4-10.4-22.8-13.3c-8.2-2.8-28.6-7.5-31.7,5.2c-3.3,13.6,15.2,9.8,20.5,17.7c3.7,5.5,2.1,13.4,6.5,18.6
				c3,3.6,6.8,5.3,11.1,3.9c-7.7,12.8-12.5,29.2-14.8,43.7c-2.2,14.1-0.5,28.8,6.6,41.3c6,10.7,16.2,18.8,27.4,23.7
				c6.3,2.7,23.9,8.8,27.1-0.8c0.3-0.8-0.8-1.3-1.3-0.8c-0.6-0.1-1.1-0.2-1.7-0.3c1.4-8,4-8.6,7.6-1.9c1.3,3.5-0.8,7.4-2.6,10.2
				c-3.2,5-8.4,8.4-13,12c-0.9,0.7,0.3,2.3,1.3,1.6c1-0.7,2.1-1.5,3.1-2.2c15.9-11.3,31.8-22.8,50.1-30c13.3-5.3,29-6.7,41.6-0.7
				C1083.7,364.7,1073.8,364.9,1064.3,366.7z M1112.4,377c-2.9-2.7-6.2-5-9.7-6.7c-25.5-23.4-67.6-0.5-93.1,19.5
				c1.4-1.7,2.6-3.5,3.7-5.4c2.1-4,2.3-10.9-2-13.7c-3.7-2.4-8.4-2.1-10.4,2.1c-0.6,1.2-0.7,3.3,0,4.5c1.4,2.4,2.4,2.4,4.8,2
				c-6.3,8.7-28-3.3-33.9-7.1c-10.2-6.6-17.4-16.8-21.1-28.2c-3.9-12.1-2.7-25.5,0.1-37.7c2.9-12.6,9.6-23.9,12.9-36.2
				c0.1-0.5-0.3-0.9-0.7-0.9c-0.3-0.5-1-0.9-1.7-0.6c-12.4,5.3-11.3-17.1-16.5-22.9c-2.1-2.4-4.2-3.5-7.3-4.4
				c-5.2-1.5-15.5-1.4-11.2-11c5-11.1,27.4-3.1,35.3,0.4c8.9,3.9,16.2,10,22.9,16.9c0.5,0.9,1.1,1.8,1.5,2.6
				c0.6,1.1,2.1,0.1,1.6-0.9c-5-10.6-15.4-22.2-27.6-29.8c15.1-2.1,28.5,0.9,39.5,12.8c13,14,9.7,37.9-1,52
				c-5.2,4.3-11.3,6.9-19.6,5.4c-0.9-0.2-1.2,1-0.4,1.3c8,3,14.9,1.2,21.5-2.9c0.4-0.1,0.7-0.2,1-0.6c0,0,0,0,0,0
				c0.9-0.6,1.9-1.3,2.8-2c0.1-0.1,0.2-0.2,0.3-0.2c6.9-3.7,12.7-9.5,19-14c13.2-9.3,27.5-6.2,39.6,3.3
				c12.4,9.8,21.4,26.7,35.2,34.7c-0.9,0.9-1.7,1.8-2.3,2.8c-14-10-21.2-26.7-35.2-36.6c-10.1-7.1-24.3-10.1-33.7-0.3
				c-0.1,0.1-0.1,0.1-0.1,0.2c0,0.2,0,0.3,0.2,0.3c16.4-1.3,31.2,5,43.1,15.9c8.3,7.6,13.7,18.9,23.8,24.2
				c-1.7,4.6-1.5,9.9,0.4,14.8c3.7,9.5,13.1,15,18.3,23.5c5.2-8.6,14.6-14.1,18.3-23.5c1.9-4.9,2.1-10.2,0.4-14.8
				c10.2-5.3,15.5-16.6,23.8-24.2c12-10.9,26.7-17.2,43.1-15.9c0.2,0,0.3-0.2,0.2-0.3c0-0.1,0-0.1-0.1-0.2
				c-9.5-9.8-23.7-6.8-33.7,0.3c-14,9.9-21.1,26.6-35.2,36.6c-0.7-1-1.5-1.9-2.3-2.8c13.8-8,22.8-24.9,35.2-34.7
				c12.1-9.5,26.4-12.6,39.6-3.3c6.3,4.5,12.1,10.3,19,14c0.1,0.1,0.2,0.2,0.3,0.2c0.9,0.7,1.9,1.3,2.8,2c0,0,0,0,0,0
				c0.3,0.4,0.7,0.5,1,0.6c6.7,4.1,13.5,5.9,21.5,2.9c0.8-0.3,0.5-1.5-0.4-1.3c-8.3,1.5-14.4-1.1-19.6-5.4c-10.7-14.1-14-38-1-52
				c11-11.9,24.4-14.9,39.5-12.8c-12.2,7.5-22.6,19.2-27.6,29.8c-0.5,1.1,1,2,1.6,0.9c0.5-0.9,1-1.8,1.5-2.6c6.6-7,14-13,22.9-16.9
				c7.9-3.4,30.3-11.5,35.3-0.4c4.2,9.5-6,9.4-11.2,11c-3,0.9-5.1,2-7.3,4.4c-5.2,5.8-4.1,28.2-16.5,22.9c-0.7-0.3-1.4,0.1-1.7,0.6
				c-0.4,0-0.9,0.3-0.7,0.9c3.3,12.4,10,23.6,12.9,36.2c2.8,12.2,4,25.6,0.1,37.7c-3.7,11.5-10.9,21.6-21.1,28.2
				c-5.9,3.8-27.6,15.8-33.9,7.1c2.4,0.3,3.5,0.4,4.8-2c0.7-1.2,0.6-3.3,0-4.5c-2.1-4.2-6.7-4.5-10.4-2.1c-4.3,2.8-4,9.7-2,13.7
				c1,2,2.3,3.8,3.7,5.4c-25.6-20-67.7-42.8-93.1-19.5C1118.6,372.1,1115.4,374.3,1112.4,377z M1076.2,295.3
				c-3.5-3.8-7.2-7.3-11.3-10.5c-10.6-8.2-23.9-12.6-37.1-9.8c14.1-10.3,30.4-0.8,40.5,10.5C1071.1,288.6,1073.6,292,1076.2,295.3z
				 M1148.7,295.3c2.5-3.3,5.1-6.7,7.9-9.8c10.2-11.3,26.4-20.8,40.5-10.5c-13.2-2.8-26.6,1.6-37.1,9.8
				C1155.9,288,1152.2,291.5,1148.7,295.3z M1298.3,244.8c-3.4,1.7-6,3.3-8.9,5.8c-7.3,6.2-5.1,22.7-17,23.2
				c-2.1,0.1-3.2,1.7-3.3,3.3c-0.4,0.6-0.6,1.2-0.3,2c9.3,22.2,19.7,46.2,10.8,70.4c-9,24.5-30.8,42.9-57.9,35.8
				c-1.4-0.4-2.3,1.6-1,2.3c2.3,1.3,4.7,2.4,7.1,3.1c1.5,0.8,3,1.6,4.4,2.6c1,0.7,2.3,1.7,3.5,2.7c6.4,10.5,5.5,14.1-2.7,11
				c-2.4-1-4.8-2.1-7.2-3.1c-3.8-2.1-7.6-4.3-11.1-6.8c-5.9-4.3-11.6-8.9-17.6-13.1c-11-7.6-23.3-15-36.6-17.5
				c-9.5-1.8-19.4-2-28.6,0.2c12.7-5.9,28.4-4.5,41.6,0.7c18.3,7.3,34.2,18.7,50.1,30c1,0.8,2,1.5,3.1,2.2c1,0.7,2.2-0.9,1.3-1.6
				c-4.6-3.6-9.8-7-13-12c-1.8-2.8-3.9-6.7-2.6-10.2c3.6-6.8,6.1-6.2,7.6,1.9c-0.6,0.1-1.2,0.2-1.7,0.3c-0.5-0.5-1.5,0-1.3,0.8
				c3.2,9.6,20.8,3.5,27.1,0.8c11.2-4.8,21.4-12.9,27.4-23.7c7-12.6,8.8-27.2,6.6-41.3c-2.3-14.5-7.1-30.9-14.8-43.7
				c4.3,1.4,8.2-0.3,11.1-3.9c4.4-5.2,2.8-13.1,6.5-18.6c5.2-7.9,23.7-4.1,20.5-17.7c-3-12.6-23.5-8-31.7-5.2
				c-8.4,2.9-16.3,7.3-22.8,13.3c12.7-14.1,33.7-25.7,51.2-18.8C1312.5,225.7,1309.5,239.3,1298.3,244.8z"/>
			<path fill="#FFFFFF" d="M1163.3,359.3c14.4,3.1,27.7,9.7,40.7,16.4c0.6,0.3,1.1-0.5,0.5-0.9c-13.3-8.1-27-16.7-42.6-19.3
				c-10.5-1.7-20.4-0.6-30.2,2.1c0.7-0.7,1.3-1.4,2-2.1c11-3,22.2-3.7,33.5-1.6c0.6,0.1,0.9-0.8,0.3-1c-9.9-3.1-19.9-3.8-29.8-2
				c9-11.2,16.3-24.7,25.4-34.2c14.6-15.4,29-18.1,49.5-14.7c9.8,1.6,19.3,2.8,28.7-1.2c0.4-0.2,0.2-1-0.2-0.9
				c-15.4,1.5-28.8-5.5-43.9-6c-11.4-0.4-20.7,3-29.9,9.6c-11,7.9-18.2,20-25.9,30.8c-8.4,11.8-16.6,20.5-28.7,26.3
				c-12.1-5.8-20.3-14.5-28.7-26.3c-7.7-10.8-14.9-22.9-25.9-30.8c-9.2-6.6-18.5-9.9-29.9-9.6c-15.1,0.5-28.5,7.4-43.9,6
				c-0.5,0-0.7,0.7-0.2,0.9c9.4,4,18.8,2.9,28.7,1.2c20.5-3.4,34.9-0.7,49.5,14.7c9,9.5,16.3,23.1,25.4,34.2
				c-9.9-1.8-19.9-1.1-29.8,2c-0.6,0.2-0.4,1.1,0.3,1c11.3-2,22.5-1.3,33.5,1.6c0.7,0.7,1.3,1.4,2,2.1c-9.8-2.7-19.7-3.8-30.2-2.1
				c-15.6,2.6-29.3,11.2-42.6,19.3c-0.6,0.3-0.1,1.2,0.5,0.9c13-6.8,26.2-13.3,40.7-16.4c14-3,26.6,0.6,39.6,5
				c3.4,2.3,7.1,4.1,11.3,5.3c4.1-1.2,7.8-3,11.3-5.3C1136.6,359.9,1149.3,356.3,1163.3,359.3z"/>
			<path fill="#FFFFFF" d="M1135.5,334.6c8-14.1,18.6-30.7,32.8-39.5c17.6-10.8,34.9-6.3,53.8-2.3c0.2,0,0.2-0.2,0.1-0.2
				c-16.6-6.8-41.1-14.7-57.7-4c-16.2,10.4-24.2,27.8-30.8,45.3C1133.2,335,1135,335.6,1135.5,334.6z"/>
			<path fill="#FFFFFF" d="M1247.5,264.7c6.4,18.7,16.1,36.8,15.7,57.1c-0.4,21.1-8,40.1-27.5,48.1c24.1-23.7,28.9-61.1,11.9-90.3
				c0,0,0,0,0,0c13.3,29.1,8.1,61.8-12.4,85.3c0.5-2.9,1-5.7,1.6-8.6c0-0.2-0.2-0.5-0.4-0.3c-5.8,4.2-9.6,11.5-9,18.8
				c0.2,2.3,2.9,3.6,4.6,2.7c52.8-13,42-80.9,15.7-113C1247.7,264.4,1247.5,264.6,1247.5,264.7z"/>
			<path fill="#FFFFFF" d="M1237.6,347.7c-5.6,2.6-11.2,2.5-17.1,2.7c0.2-1.4,0.4-2.9,0.4-4.3c6.5,1.6,13.1-0.3,16.5-6.4
				c5.6-9.9-4.6-21.6,3.7-31.1c0.1-0.1,0.1-0.2,0-0.3c0.2-0.2,0-0.5-0.2-0.4c-12.7,5.2-23.2-3.4-35.7-3.8
				c-8.6-0.3-16.4,1.2-24.5,4.4c-14.3,5.7-23.8,19.3-29.2,33.2c-1.1,2.9,2.9,5.2,5.1,3.7c16.1,0.9,24.9,16.5,39.5,21.1
				c4.7,2.4,9.6,4,15.2,2.8c2.7-0.6,5.4-1.4,7.5-3.2c3.3-2.8,5.9-6.6,10.2-8c0.4-0.1,0.3-0.7-0.1-0.7c-5.2,0.3-7.6,4.1-11.8,6.6
				c-2.3,1.4-4.8,2.1-7.4,2.4c5-2.3,8.4-7.1,10-12.6c9.7,1.2,23.5-0.9,27.8-11c5.3-12.6-1.6-25.6,0.7-38.5c0-0.1-0.1-0.2-0.2-0.1
				c-3.6,9.3-0.3,18.6-1.1,28.1C1246.5,338.5,1244,344.7,1237.6,347.7z M1160.3,338.2c9-17,24.2-29.3,44.9-28.2
				c9.7,0.5,20.4,4.9,29.5,1.9c-8.1,7.2-5,27.8-21.3,22c-1.2-0.4-2.8,0.7-2.6,2c1.5,12.6-11.2,20.6-22.6,14.2
				c-4.5-2.5-8.8-6-13.5-8.2C1169.7,339.5,1165.2,338,1160.3,338.2z M1219.4,345.5c-2.1,8.7-5.7,19.6-16.7,18.9
				c-8-0.5-14-4.6-20-9.4c1,0.5,2,1.1,3,1.6c4.1,2.1,9,5.1,13.7,5.3c10.4,0.4,15.1-7.5,16.9-16.7c0-0.1-0.1-0.2-0.2-0.1
				c-2,4.5-4.5,10-9.1,12.4c-4.7,2.5-9.2,1.6-13.6-0.2c2.7,0.5,5.4,0.6,8.3,0.1c7.9-1.6,12.1-9.6,13-17.1c8.8,5,23.8,0.1,19.8-11.8
				c0-0.1-0.2-0.1-0.2,0c0.4,5.1-3.2,10-8.3,11c-1.9,0.4-3.6,0.3-5.2-0.1c2.7-0.2,5.2-1,7.4-3c8.2-7.3,3.2-18.3,10.2-26.1
				c0.1-0.1,0.1-0.2,0-0.3c0.1-0.1,0.3-0.2,0.4-0.3c-3.1,3.5-3.6,8.2-3,13.1c0.5,4.4,1.8,9.8,0.2,14.1c-2.6,6.9-9.2,8.4-15.7,6.5
				C1219.1,343.1,1218.5,344.8,1219.4,345.5z"/>
			<path fill="#FFFFFF" d="M1253.6,264.2c7.2,3.2,16.9-1.4,17.7-8.9c0.1-0.1,0.1-0.3,0.1-0.5c0-0.3,0-0.6-0.1-0.8c0,0,0-0.1,0-0.1
				c-0.7-10.6-11.7-17.8-21.3-11.4C1241,248.3,1245.1,260.5,1253.6,264.2z M1252.7,244.8c2.5-0.8,5.2-1.2,7.7-0.8
				c3.5,1,6.4,3.7,7.8,7.4c1.6,8.3-7,13.9-14.3,9.6C1248.2,257.6,1245.5,248.4,1252.7,244.8z"/>
			<path fill="#FFFFFF" d="M1281.6,239.9c3.6-1.4,7.3-3.2,9.5-6.5c1.3-1.9-0.3-5-2.4-5.5c-2.3-0.5-4.8-0.4-7.3,0.1
				c-1.6,0.2-3.2,0.6-4.8,1.3c-2.8,1.2-8.1,2.8-9.3,5.9C1264,243.5,1277.9,241.4,1281.6,239.9z M1275.4,233.8
				c3.3-1.5,6.8-2.5,10.4-2.6c1,1.6,0.8,2.7-0.7,3.2c-1.8,1.1-3.7,2.1-5.7,2.6c-2.2,0.6-5.6,1.7-7.8,0.9
				C1269,237,1275.1,233.9,1275.4,233.8z"/>
			<path fill="#FFFFFF" d="M1234.3,245.6c3.3-8.2,9-14.7,15.5-20.5c0.7-0.2,1.4-0.3,2.1-0.5c0.7-0.1,0.6-1.4-0.2-1.3
				c-12.1,1.2-22.4,9.3-26.5,20.8c-4,11.3-5.4,30,4.9,38.6c9.1,7.5,15.9-5.4,10.4-13C1235.1,262.1,1230.3,255.5,1234.3,245.6z
				 M1231.1,279.1c-2.5-2.8-3.9-6.2-4.6-9.8c-1.3-6.7-1.6-13.8,0.3-20.4c3.2-11,10.9-20.3,21.9-23.5c-7,4.7-13.6,11.6-16.5,19.6
				c-3.6,10-1.2,16.5,4.7,24.8c1,1.3,1.9,2.7,2.5,4.3C1241,278.7,1238.2,280.4,1231.1,279.1z"/>
		</g>
	</g>
</g>
</svg>
